<?xml version="1.0" encoding="utf-8"?>
<!-- Generator: Adobe Illustrator 24.2.3, SVG Export Plug-In . SVG Version: 6.00 Build 0)  -->
<svg version="1.1" id="Layer_1" xmlns="http://www.w3.org/2000/svg" xmlns:xlink="http://www.w3.org/1999/xlink" x="0px" y="0px"
	 viewBox="0 0 88.31 88.31" style="enable-background:new 0 0 88.31 88.31;" xml:space="preserve">
<style type="text/css">
	.st0{fill:url(#SVGID_1_);}
	.st1{opacity:0.1;clip-path:url(#SVGID_3_);}
	.st2{opacity:0.75;}
	.st3{fill:#303C42;}
	.st4{fill:url(#SVGID_4_);}
	.st5{fill:#5A6D75;}
	.st6{fill:#FDFDFD;}
	.st7{fill:#434E53;}
	.st8{opacity:0.15;fill:#303C42;}
	.st9{opacity:0.25;}
	.st10{fill:url(#SVGID_5_);}
	.st11{fill:url(#SVGID_6_);}
	.st12{fill:url(#SVGID_7_);}
	.st13{fill:url(#SVGID_8_);}
	.st14{fill:url(#SVGID_9_);}
	.st15{opacity:0.5;}
	.st16{fill:url(#SVGID_10_);}
	.st17{fill:url(#SVGID_11_);}
	.st18{fill:url(#SVGID_12_);}
	.st19{fill:url(#SVGID_13_);}
	.st20{opacity:0.65;}
	.st21{fill:url(#SVGID_14_);}
	.st22{fill:url(#SVGID_15_);}
	.st23{fill:url(#SVGID_16_);}
	.st24{fill:url(#SVGID_17_);}
	.st25{fill:url(#SVGID_18_);}
	.st26{fill:url(#SVGID_19_);}
	.st27{fill:url(#SVGID_20_);}
	.st28{fill:url(#SVGID_21_);}
	.st29{fill:url(#SVGID_22_);}
	.st30{fill:url(#SVGID_23_);}
	.st31{fill:url(#SVGID_24_);}
	.st32{fill:url(#SVGID_25_);}
	.st33{fill:url(#SVGID_26_);}
	.st34{fill:url(#SVGID_27_);}
	.st35{fill:url(#SVGID_28_);}
	.st36{fill:url(#SVGID_29_);}
	.st37{fill:url(#SVGID_30_);}
	.st38{fill:url(#SVGID_31_);}
	.st39{fill:url(#SVGID_32_);}
	.st40{fill:url(#SVGID_33_);}
	.st41{fill:url(#SVGID_34_);}
	.st42{fill:url(#SVGID_35_);}
	.st43{fill:url(#SVGID_36_);}
	.st44{fill:url(#SVGID_37_);}
	.st45{fill:url(#SVGID_38_);}
	.st46{fill:url(#SVGID_39_);}
	.st47{fill:url(#SVGID_40_);}
	.st48{fill:url(#SVGID_41_);}
	.st49{fill:url(#SVGID_42_);}
	.st50{fill:url(#SVGID_43_);}
	.st51{fill:url(#SVGID_44_);}
	.st52{fill:url(#SVGID_45_);}
	.st53{fill:url(#SVGID_46_);}
	.st54{fill:url(#SVGID_47_);}
	.st55{fill:url(#SVGID_48_);}
	.st56{fill:url(#SVGID_49_);}
	.st57{fill:url(#SVGID_50_);}
	.st58{fill:url(#SVGID_51_);}
	.st59{fill:url(#SVGID_52_);}
	.st60{fill:url(#SVGID_53_);}
	.st61{fill:url(#SVGID_54_);}
	.st62{fill:url(#SVGID_55_);}
	.st63{fill:url(#SVGID_56_);}
	.st64{fill:url(#SVGID_57_);}
	.st65{fill:url(#SVGID_58_);}
	.st66{fill:url(#SVGID_59_);}
	.st67{fill:url(#SVGID_60_);}
	.st68{fill:url(#SVGID_61_);}
	.st69{fill:url(#SVGID_62_);}
	.st70{fill:url(#SVGID_63_);}
	.st71{fill:url(#SVGID_64_);}
	.st72{fill:url(#SVGID_65_);}
	.st73{fill:url(#SVGID_66_);}
	.st74{fill:url(#SVGID_67_);}
	.st75{fill:url(#SVGID_68_);}
	.st76{fill:url(#SVGID_69_);}
	.st77{fill:url(#SVGID_70_);}
	.st78{fill:url(#SVGID_71_);}
	.st79{fill:url(#SVGID_72_);}
	.st80{fill:url(#SVGID_73_);}
	.st81{fill:url(#SVGID_74_);}
	.st82{fill:url(#SVGID_75_);}
	.st83{fill:url(#SVGID_76_);}
	.st84{fill:url(#SVGID_77_);}
	.st85{fill:url(#SVGID_78_);}
	.st86{fill:url(#SVGID_79_);}
	.st87{fill:url(#SVGID_80_);}
	.st88{fill:url(#SVGID_81_);}
	.st89{fill:url(#SVGID_82_);}
	.st90{fill:url(#SVGID_83_);}
	.st91{fill:url(#SVGID_84_);}
	.st92{fill:url(#SVGID_85_);}
	.st93{fill:url(#SVGID_86_);}
	.st94{fill:url(#SVGID_87_);}
	.st95{fill:url(#SVGID_88_);}
	.st96{fill:url(#SVGID_89_);}
	.st97{fill:url(#SVGID_90_);}
	.st98{fill:url(#SVGID_91_);}
	.st99{fill:url(#SVGID_92_);}
	.st100{fill:url(#SVGID_93_);}
	.st101{fill:url(#SVGID_94_);}
	.st102{fill:url(#SVGID_95_);}
	.st103{fill:url(#SVGID_96_);}
	.st104{fill:url(#SVGID_97_);}
	.st105{fill:url(#SVGID_98_);}
	.st106{fill:url(#SVGID_99_);}
	.st107{fill:url(#SVGID_100_);}
	.st108{fill:url(#SVGID_101_);}
	.st109{fill:url(#SVGID_102_);}
	.st110{fill:url(#SVGID_103_);}
	.st111{fill:url(#SVGID_104_);}
	.st112{fill:url(#SVGID_105_);}
	.st113{clip-path:url(#SVGID_107_);}
	.st114{fill:#191A1C;}
	.st115{opacity:0.15;fill:#FF5F65;}
	.st116{fill:#F45864;}
	.st117{opacity:0.25;fill-rule:evenodd;clip-rule:evenodd;fill:#F9A74E;}
	.st118{clip-path:url(#SVGID_283_);}
	.st119{fill:#9E684D;stroke:#161616;stroke-width:0.2485;}
	.st120{fill:#B78065;stroke:#161616;stroke-width:0.2485;}
	.st121{fill:#7C482E;stroke:#161616;stroke-width:0.3728;}
	.st122{fill:#7C482E;stroke:#161616;stroke-width:0.7455;}
	.st123{fill:#AE7C5F;stroke:#161616;stroke-width:0.3728;}
	.st124{fill:#56271E;}
	.st125{fill:#A12829;}
	.st126{fill:#E7343D;}
	.st127{fill:#F6AE88;}
	.st128{fill:#CB3035;}
	.st129{fill:#FFEC00;}
	.st130{fill:#1D1D1B;}
	.st131{fill:#A55C45;stroke:#1D1D1B;stroke-width:0.7455;stroke-linecap:round;stroke-linejoin:round;}
	.st132{fill:#E20613;stroke:#1D1D1B;stroke-width:0.7455;stroke-linecap:round;stroke-linejoin:round;}
	.st133{fill:none;stroke:#1D1D1B;stroke-width:0.7455;stroke-linecap:round;stroke-linejoin:round;}
	.st134{opacity:0.15;fill:#1D1D1B;}
	.st135{fill:#FFFFFF;}
	.st136{fill:#F7D500;}
	.st137{fill:#A35039;stroke:#0C0C0C;stroke-width:0.2485;}
	.st138{fill:#893927;stroke:#0C0C0C;stroke-width:0.2485;}
	.st139{fill:#1F272D;stroke:#0C0C0C;stroke-width:0.2485;}
	.st140{opacity:0.25;fill:#1D1D1B;}
	.st141{enable-background:new    ;}
	.st142{clip-path:url(#SVGID_285_);enable-background:new    ;}
	.st143{fill:#0B0B0B;}
	.st144{clip-path:url(#SVGID_287_);enable-background:new    ;}
	.st145{fill:#0D0D0D;}
	.st146{fill:#0C0C0C;}
	.st147{clip-path:url(#SVGID_289_);enable-background:new    ;}
	.st148{fill:#402518;}
	.st149{clip-path:url(#SVGID_291_);enable-background:new    ;}
	.st150{fill:#432719;}
	.st151{clip-path:url(#SVGID_293_);enable-background:new    ;}
	.st152{fill:#45281A;}
	.st153{clip-path:url(#SVGID_295_);enable-background:new    ;}
	.st154{clip-path:url(#SVGID_297_);enable-background:new    ;}
	.st155{clip-path:url(#SVGID_299_);enable-background:new    ;}
	.st156{fill:#482A1B;}
	.st157{clip-path:url(#SVGID_301_);enable-background:new    ;}
	.st158{clip-path:url(#SVGID_303_);enable-background:new    ;}
	.st159{clip-path:url(#SVGID_305_);enable-background:new    ;}
	.st160{fill:#4A2B1C;}
	.st161{clip-path:url(#SVGID_307_);enable-background:new    ;}
	.st162{clip-path:url(#SVGID_309_);enable-background:new    ;}
	.st163{clip-path:url(#SVGID_311_);enable-background:new    ;}
	.st164{clip-path:url(#SVGID_313_);enable-background:new    ;}
	.st165{clip-path:url(#SVGID_315_);enable-background:new    ;}
	.st166{clip-path:url(#SVGID_317_);enable-background:new    ;}
	.st167{fill:#0E0E0E;}
	.st168{clip-path:url(#SVGID_319_);enable-background:new    ;}
	.st169{clip-path:url(#SVGID_321_);enable-background:new    ;}
	.st170{clip-path:url(#SVGID_323_);enable-background:new    ;}
	.st171{clip-path:url(#SVGID_325_);enable-background:new    ;}
	.st172{fill:#4F2E1D;}
	.st173{fill:#4D2D1D;}
	.st174{clip-path:url(#SVGID_327_);enable-background:new    ;}
	.st175{clip-path:url(#SVGID_329_);enable-background:new    ;}
	.st176{clip-path:url(#SVGID_331_);enable-background:new    ;}
	.st177{clip-path:url(#SVGID_333_);enable-background:new    ;}
	.st178{clip-path:url(#SVGID_335_);enable-background:new    ;}
	.st179{clip-path:url(#SVGID_337_);enable-background:new    ;}
	.st180{clip-path:url(#SVGID_339_);enable-background:new    ;}
	.st181{clip-path:url(#SVGID_341_);enable-background:new    ;}
	.st182{fill:#654837;}
	.st183{fill:#684A39;}
	.st184{fill:#6C4D3B;}
	.st185{fill:#6F4F3D;}
	.st186{clip-path:url(#SVGID_343_);enable-background:new    ;}
	.st187{clip-path:url(#SVGID_345_);enable-background:new    ;}
	.st188{clip-path:url(#SVGID_347_);enable-background:new    ;}
	.st189{clip-path:url(#SVGID_349_);enable-background:new    ;}
	.st190{clip-path:url(#SVGID_351_);enable-background:new    ;}
	.st191{fill:#5A4031;}
	.st192{fill:#5E4333;}
	.st193{fill:#614535;}
	.st194{clip-path:url(#SVGID_353_);enable-background:new    ;}
	.st195{fill:#131313;}
	.st196{clip-path:url(#SVGID_355_);enable-background:new    ;}
	.st197{clip-path:url(#SVGID_357_);enable-background:new    ;}
	.st198{clip-path:url(#SVGID_359_);enable-background:new    ;}
	.st199{fill:#6B3E28;}
	.st200{clip-path:url(#SVGID_361_);enable-background:new    ;}
	.st201{clip-path:url(#SVGID_363_);enable-background:new    ;}
	.st202{clip-path:url(#SVGID_365_);enable-background:new    ;}
	.st203{clip-path:url(#SVGID_367_);enable-background:new    ;}
	.st204{clip-path:url(#SVGID_369_);enable-background:new    ;}
	.st205{clip-path:url(#SVGID_371_);enable-background:new    ;}
	.st206{fill:#976B52;}
	.st207{clip-path:url(#SVGID_373_);enable-background:new    ;}
	.st208{clip-path:url(#SVGID_375_);enable-background:new    ;}
	.st209{clip-path:url(#SVGID_377_);enable-background:new    ;}
	.st210{clip-path:url(#SVGID_379_);enable-background:new    ;}
	.st211{clip-path:url(#SVGID_381_);enable-background:new    ;}
	.st212{clip-path:url(#SVGID_383_);enable-background:new    ;}
	.st213{clip-path:url(#SVGID_385_);enable-background:new    ;}
	.st214{clip-path:url(#SVGID_387_);enable-background:new    ;}
	.st215{clip-path:url(#SVGID_389_);enable-background:new    ;}
	.st216{clip-path:url(#SVGID_391_);enable-background:new    ;}
	.st217{clip-path:url(#SVGID_393_);enable-background:new    ;}
	.st218{clip-path:url(#SVGID_395_);enable-background:new    ;}
	.st219{clip-path:url(#SVGID_397_);enable-background:new    ;}
	.st220{clip-path:url(#SVGID_399_);enable-background:new    ;}
	.st221{clip-path:url(#SVGID_401_);enable-background:new    ;}
	.st222{clip-path:url(#SVGID_403_);enable-background:new    ;}
	.st223{clip-path:url(#SVGID_405_);enable-background:new    ;}
	.st224{clip-path:url(#SVGID_407_);enable-background:new    ;}
	.st225{clip-path:url(#SVGID_409_);enable-background:new    ;}
	.st226{clip-path:url(#SVGID_411_);enable-background:new    ;}
	.st227{clip-path:url(#SVGID_413_);enable-background:new    ;}
	.st228{clip-path:url(#SVGID_415_);enable-background:new    ;}
	.st229{clip-path:url(#SVGID_417_);enable-background:new    ;}
	.st230{clip-path:url(#SVGID_419_);enable-background:new    ;}
	.st231{clip-path:url(#SVGID_421_);enable-background:new    ;}
	.st232{clip-path:url(#SVGID_423_);enable-background:new    ;}
	.st233{clip-path:url(#SVGID_425_);enable-background:new    ;}
	.st234{clip-path:url(#SVGID_427_);enable-background:new    ;}
	.st235{clip-path:url(#SVGID_429_);enable-background:new    ;}
	.st236{clip-path:url(#SVGID_431_);enable-background:new    ;}
	.st237{clip-path:url(#SVGID_433_);enable-background:new    ;}
	.st238{clip-path:url(#SVGID_435_);enable-background:new    ;}
	.st239{clip-path:url(#SVGID_437_);enable-background:new    ;}
	.st240{clip-path:url(#SVGID_439_);enable-background:new    ;}
	.st241{clip-path:url(#SVGID_441_);enable-background:new    ;}
	.st242{clip-path:url(#SVGID_443_);enable-background:new    ;}
	.st243{clip-path:url(#SVGID_445_);enable-background:new    ;}
	.st244{clip-path:url(#SVGID_447_);enable-background:new    ;}
	.st245{clip-path:url(#SVGID_449_);enable-background:new    ;}
	.st246{clip-path:url(#SVGID_451_);enable-background:new    ;}
	.st247{clip-path:url(#SVGID_453_);enable-background:new    ;}
	.st248{clip-path:url(#SVGID_455_);enable-background:new    ;}
	.st249{clip-path:url(#SVGID_457_);enable-background:new    ;}
	.st250{opacity:0.1;fill:#FFFFFF;}
	.st251{opacity:0.15;fill:#FFFFFF;}
	.st252{opacity:0.05;fill:#1D1D1B;}
	.st253{fill:#FFF8EE;}
	.st254{clip-path:url(#SVGID_459_);}
	.st255{clip-path:url(#SVGID_637_);}
	.st256{fill:#905B42;stroke:#0A0A0A;stroke-width:0.7134;stroke-miterlimit:10;}
	.st257{opacity:0.3;fill:#D8A287;stroke:#0C0C0C;stroke-width:0.5432;}
	.st258{fill:#7C482E;stroke:#161616;stroke-width:0.5432;}
	.st259{fill:#503225;stroke:#0A0A0A;stroke-width:1.4484;stroke-miterlimit:10;}
	.st260{fill:#E6D4E7;}
	.st261{fill:#CEA6CC;}
	.st262{fill:#0D131A;}
	.st263{fill:#9B7FA6;}
	.st264{fill:#836B8D;}
	.st265{fill:#DBDCDC;}
	.st266{fill:#A586BC;}
	.st267{fill:#8F75A3;}
	.st268{fill:#684236;stroke:#0A0A0A;stroke-width:0.3621;stroke-miterlimit:10;}
	.st269{fill:#8E4220;}
	.st270{fill:none;stroke:#262626;stroke-width:1.0863;stroke-miterlimit:10;}
	.st271{fill:#684236;stroke:#0A0A0A;stroke-width:1.4484;stroke-miterlimit:10;}
	.st272{fill:#684236;stroke:#0A0A0A;stroke-width:0.7242;stroke-miterlimit:10;}
	.st273{fill:#503225;stroke:#0A0A0A;stroke-width:0.7242;stroke-miterlimit:10;}
	.st274{fill:#8D7A6C;}
	.st275{fill:none;stroke:#262626;stroke-width:1.4484;stroke-miterlimit:10;}
	.st276{fill:#99877A;}
	.st277{fill:none;stroke:#262626;stroke-width:0.7242;stroke-miterlimit:10;}
	.st278{fill:#726054;}
	.st279{opacity:0.77;fill:none;stroke:#0A0A0A;stroke-width:0.3621;stroke-miterlimit:10;}
	.st280{fill:#241F20;}
	.st281{fill:#918E8E;}
	.st282{fill:#5C5859;}
	.st283{fill:#585455;}
	.st284{fill:#C5C3C3;}
	.st285{fill:#5B5758;}
	.st286{fill:#939090;}
	.st287{fill:#C5C4C4;}
	.st288{fill:#CAC9C9;}
	.st289{fill:#CD4C3F;}
	.st290{fill:#FEFEFE;}
	.st291{fill:#A19D9D;}
	.st292{fill:#58585A;}
	.st293{fill:#EA827D;}
	.st294{fill:#363638;}
	.st295{fill:#DDDCDC;}
	.st296{fill:#D8D7D7;}
	.st297{fill:#DBDADA;}
	.st298{fill:#D9D8D8;}
	.st299{opacity:0.2;fill:#0D131A;}
	.st300{fill:none;stroke:#0D131A;stroke-width:1.0863;stroke-miterlimit:10;}
	.st301{opacity:0.25;fill:#76000A;stroke:#161616;stroke-width:0.7242;}
	.st302{fill:#7D818F;stroke:#161616;stroke-width:0.5432;}
	.st303{fill:#A3A5B5;stroke:#161616;stroke-width:0.5432;}
	.st304{fill:#898A99;stroke:#161616;stroke-width:0.5432;}
	.st305{fill:#70828F;stroke:#161616;stroke-width:0.5432;}
	.st306{fill:#AE7C5F;stroke:#0C0C0C;stroke-width:0.5432;}
	.st307{fill:#CC1417;stroke:#0C0C0C;stroke-width:0.7242;}
	.st308{fill:#C8BFB8;stroke:#0C0C0C;stroke-width:0.7242;}
	.st309{fill:#C8BFB8;stroke:#0C0C0C;stroke-width:0.1811;}
	.st310{fill:#C8BFB8;stroke:#0C0C0C;stroke-width:0.3621;}
	.st311{fill:#C8BFB8;}
	.st312{fill:#503225;stroke:#0A0A0A;stroke-width:0.7134;stroke-miterlimit:10;}
	.st313{opacity:0.75;fill:#020202;}
	.st314{fill:#5F3928;stroke:#0A0A0A;stroke-width:0.6745;stroke-miterlimit:10;}
	.st315{opacity:0.77;}
	.st316{fill:#0A0A0A;}
	.st317{fill:#65473B;stroke:#0A0A0A;stroke-width:0.6745;stroke-miterlimit:10;}
	.st318{fill:#503225;stroke:#0A0A0A;stroke-width:1.3733;stroke-miterlimit:10;}
	
		.st319{opacity:0.68;fill:none;stroke:#0A0A0A;stroke-width:0.1945;stroke-linecap:round;stroke-linejoin:round;stroke-miterlimit:10;stroke-dasharray:0.9727,0.9727;}
	.st320{fill:#3B231A;stroke:#0A0A0A;stroke-width:0.6745;stroke-miterlimit:10;}
	.st321{fill:none;stroke:#0A0A0A;stroke-width:0.1945;stroke-linecap:round;stroke-linejoin:round;stroke-miterlimit:10;}
	.st322{fill:#5F3928;stroke:#0A0A0A;stroke-width:0.7134;stroke-miterlimit:10;}
	.st323{fill:#65473B;stroke:#0A0A0A;stroke-width:0.7134;stroke-miterlimit:10;}
	
		.st324{opacity:0.68;fill:none;stroke:#0A0A0A;stroke-width:0.2197;stroke-linecap:round;stroke-linejoin:round;stroke-miterlimit:10;stroke-dasharray:1.0983,1.0983;}
	.st325{fill:#3B231A;stroke:#0A0A0A;stroke-width:0.7134;stroke-miterlimit:10;}
	.st326{fill:none;stroke:#0A0A0A;stroke-width:0.2197;stroke-linecap:round;stroke-linejoin:round;stroke-miterlimit:10;}
	.st327{clip-path:url(#SVGID_643_);}
	.st328{fill:#301C18;}
	.st329{fill:#EF8200;}
	.st330{fill:#DDD583;}
	.st331{fill:#CF7100;}
	.st332{fill:#FFF697;}
	.st333{fill:#922F00;}
	.st334{fill:#ED8599;}
	.st335{fill:#CE7486;}
	.st336{fill:#EFE908;}
	.st337{fill:#E50020;}
	.st338{fill:#007F78;}
	.st339{fill:#184972;}
	.st340{fill:none;stroke:#141414;stroke-width:0.7329;stroke-miterlimit:10;}
	.st341{opacity:0.25;fill:#76000A;stroke:#141414;stroke-width:0.3278;}
	.st342{fill:#7D818F;stroke:#141414;stroke-width:0.2459;}
	.st343{fill:#A3A5B5;stroke:#141414;stroke-width:0.2459;}
	.st344{fill:#898A99;stroke:#141414;stroke-width:0.2459;}
	.st345{fill:#70828F;stroke:#141414;stroke-width:0.2459;}
	.st346{fill:#276289;}
	.st347{fill:none;stroke:#141414;stroke-width:0.1832;stroke-miterlimit:10;}
	.st348{opacity:0.1;fill:#FFFFFF;stroke:#141414;stroke-width:0.1832;stroke-miterlimit:10;}
	.st349{fill:#0D131A;stroke:#141414;stroke-width:2.8185;stroke-miterlimit:10;}
	.st350{opacity:0.2;fill:#241F20;}
	.st351{fill:none;stroke:#1C1C1C;stroke-width:1.4658;stroke-miterlimit:10;}
	.st352{fill:#DFA324;stroke:#1C1C1C;stroke-width:0.5783;stroke-miterlimit:10;}
	.st353{fill:#F2B03B;}
	.st354{fill:#161616;}
	.st355{fill:#8E4220;stroke:#070707;stroke-width:0.5497;stroke-miterlimit:10;}
	.st356{fill:#301C18;stroke:#070707;stroke-width:0.7329;stroke-miterlimit:10;}
	.st357{fill:#AA6448;stroke:#262626;stroke-width:0.2877;stroke-miterlimit:10;}
	.st358{fill:#AA6448;stroke:#020202;stroke-width:0.2877;stroke-miterlimit:10;}
	.st359{clip-path:url(#SVGID_649_);}
	.st360{fill:#905B42;stroke:#0A0A0A;stroke-width:1.247;stroke-miterlimit:10;}
	.st361{opacity:0.3;fill:#D8A287;stroke:#0C0C0C;stroke-width:0.1656;}
	.st362{fill:#7C482E;stroke:#161616;stroke-width:0.3117;}
	.st363{fill:#503225;stroke:#0A0A0A;stroke-width:0.6235;stroke-miterlimit:10;}
	.st364{fill:#905B42;stroke:#0A0A0A;stroke-width:0.2175;stroke-miterlimit:10;}
	.st365{fill:#D18200;}
	.st366{fill:#FEB045;}
	.st367{fill:#008086;}
	.st368{fill:#00666C;}
	.st369{opacity:0.2;fill:#0B0D0F;}
	.st370{fill:none;stroke:#0D131A;stroke-width:0.6235;stroke-miterlimit:10;}
	.st371{opacity:0.25;fill:#0D131A;}
	.st372{fill:#503225;stroke:#0A0A0A;stroke-width:0.5986;stroke-miterlimit:10;}
	.st373{opacity:0.25;fill:#76000A;stroke:#161616;stroke-width:0.2993;}
	.st374{fill:#7D818F;stroke:#161616;stroke-width:0.2245;}
	.st375{fill:#A3A5B5;stroke:#161616;stroke-width:0.2245;}
	.st376{fill:#898A99;stroke:#161616;stroke-width:0.2245;}
	.st377{fill:#70828F;stroke:#161616;stroke-width:0.2245;}
	.st378{fill:#905B42;stroke:#0A0A0A;stroke-width:0.2949;stroke-miterlimit:10;}
	.st379{fill:#AE7C5F;stroke:#0C0C0C;stroke-width:0.2245;}
	.st380{fill:#998675;stroke:#070707;stroke-width:0.3117;stroke-miterlimit:10;}
	.st381{fill:#1A1A1A;stroke:#070707;stroke-width:0.6235;stroke-miterlimit:10;}
	.st382{fill:#754C24;stroke:#070707;stroke-width:1.247;stroke-miterlimit:10;}
	.st383{fill:#42210B;stroke:#070707;stroke-width:0.6235;stroke-miterlimit:10;}
	.st384{fill:#603813;stroke:#070707;stroke-width:0.6235;stroke-miterlimit:10;}
	.st385{fill:#998675;stroke:#070707;stroke-width:0.3226;stroke-miterlimit:10;}
	.st386{fill:#1A1A1A;stroke:#070707;stroke-width:0.6453;stroke-miterlimit:10;}
	.st387{fill:#754C24;stroke:#070707;stroke-width:1.2905;stroke-miterlimit:10;}
	.st388{fill:#42210B;stroke:#070707;stroke-width:0.6453;stroke-miterlimit:10;}
	.st389{fill:#603813;stroke:#070707;stroke-width:0.6453;stroke-miterlimit:10;}
	.st390{clip-path:url(#SVGID_655_);}
	.st391{fill:#84CABF;}
	.st392{fill:#F2E100;}
	.st393{fill:#EEEEEF;}
	.st394{fill:#C6000B;}
	.st395{fill:#CBBD00;}
	.st396{fill:#72B0A6;}
	.st397{fill:#A95B00;}
	.st398{fill:#C8C9CA;}
	.st399{opacity:0.25;fill:#241F20;}
	.st400{fill:#C5A465;stroke:#0A0A0A;stroke-width:0.5192;stroke-miterlimit:10;}
	.st401{fill:#C0BEAF;}
	.st402{fill:#E5C580;stroke:#0A0A0A;stroke-width:0.5192;stroke-miterlimit:10;}
	.st403{fill:#C5A465;stroke:#111111;stroke-width:0.5192;stroke-miterlimit:10;}
	.st404{fill:#C5A465;stroke:#111111;stroke-width:0.1298;stroke-miterlimit:10;}
	.st405{fill:#7D3025;stroke:#0A0A0A;stroke-width:0.5192;stroke-miterlimit:10;}
	.st406{fill:#8A7548;}
	.st407{fill:#E5C580;}
	.st408{fill:#503225;stroke:#0A0A0A;stroke-width:0.7789;stroke-miterlimit:10;}
	.st409{opacity:0.25;fill:#76000A;stroke:#141414;stroke-width:0.2323;}
	.st410{fill:#7D818F;stroke:#141414;stroke-width:0.1872;}
	.st411{fill:#A3A5B5;stroke:#141414;stroke-width:0.1872;}
	.st412{fill:#898A99;stroke:#141414;stroke-width:0.1872;}
	.st413{fill:#70828F;stroke:#141414;stroke-width:0.1872;}
	.st414{fill:#7D818F;stroke:#141414;stroke-width:0.244;}
	.st415{fill:#A3A5B5;stroke:#141414;stroke-width:0.244;}
	.st416{fill:#898A99;stroke:#141414;stroke-width:0.244;}
	.st417{fill:#70828F;stroke:#141414;stroke-width:0.244;}
	.st418{fill:#905B42;stroke:#0A0A0A;stroke-width:0.5192;stroke-miterlimit:10;}
	.st419{fill:#905B42;stroke:#0A0A0A;stroke-width:0.2596;stroke-miterlimit:10;}
	.st420{opacity:0.1;fill:#FFFFFF;stroke:#141414;stroke-width:0.1298;stroke-miterlimit:10;}
	.st421{fill:#23150C;}
	.st422{fill:#95533A;}
	.st423{fill:#E2A896;}
	.st424{fill:#794F32;}
	.st425{clip-path:url(#SVGID_661_);}
	.st426{fill:#759AB5;stroke:#0C0C0C;stroke-width:0.5445;stroke-miterlimit:10;}
	.st427{fill:#87B1D0;}
	.st428{fill:#503225;stroke:#0A0A0A;stroke-width:0.8167;stroke-miterlimit:10;}
	.st429{fill:#E50044;}
	.st430{fill:#DBD5CA;}
	.st431{fill:#C6DCDB;}
	.st432{fill:#759AB5;}
	.st433{fill:#B3AEA6;}
	.st434{fill:#A7BAB9;}
	.st435{fill:#C5A465;stroke:#0A0A0A;stroke-width:0.5445;stroke-miterlimit:10;}
	.st436{fill:#E5C580;stroke:#0A0A0A;stroke-width:0.5445;stroke-miterlimit:10;}
	.st437{fill:#C5A465;stroke:#111111;stroke-width:0.5445;stroke-miterlimit:10;}
	.st438{fill:#C5A465;stroke:#111111;stroke-width:0.1361;stroke-miterlimit:10;}
	.st439{fill:#7D3025;stroke:#0A0A0A;stroke-width:0.5445;stroke-miterlimit:10;}
	.st440{opacity:0.25;fill:#76000A;stroke:#141414;stroke-width:0.2436;}
	.st441{fill:#503225;stroke:#0A0A0A;stroke-width:0.4083;stroke-miterlimit:10;}
	.st442{fill:#7D818F;stroke:#141414;stroke-width:0.1963;}
	.st443{fill:#A3A5B5;stroke:#141414;stroke-width:0.1963;}
	.st444{fill:#898A99;stroke:#141414;stroke-width:0.1963;}
	.st445{fill:#70828F;stroke:#141414;stroke-width:0.1963;}
	.st446{fill:#7D818F;stroke:#141414;stroke-width:0.2558;}
	.st447{fill:#A3A5B5;stroke:#141414;stroke-width:0.2558;}
	.st448{fill:#898A99;stroke:#141414;stroke-width:0.2558;}
	.st449{fill:#70828F;stroke:#141414;stroke-width:0.2558;}
	.st450{fill:#905B42;stroke:#0A0A0A;stroke-width:0.2722;stroke-miterlimit:10;}
	.st451{fill:#503225;stroke:#0A0A0A;stroke-width:0.8378;stroke-miterlimit:10;}
	.st452{fill:#905B42;stroke:#0A0A0A;stroke-width:0.5326;stroke-miterlimit:10;}
	.st453{clip-path:url(#SVGID_667_);}
	.st454{fill:#68AE28;}
	.st455{fill:#56931F;}
	.st456{fill:#7CBEB3;}
	.st457{fill:#68A198;}
	.st458{fill:#D60040;}
	.st459{fill:#006359;}
	.st460{opacity:0.35;fill:#241F20;}
	.st461{fill:#D2C856;stroke:#172E00;stroke-width:0.5552;stroke-miterlimit:10;}
	.st462{fill:#CDE2A0;}
	.st463{fill:#F2E971;stroke:#172E00;stroke-width:0.5552;stroke-miterlimit:10;}
	.st464{fill:#D2C856;stroke:#1E3502;stroke-width:0.5552;stroke-miterlimit:10;}
	.st465{fill:#D2C856;stroke:#1E3502;stroke-width:0.1388;stroke-miterlimit:10;}
	.st466{fill:#8A5416;stroke:#172E00;stroke-width:0.5552;stroke-miterlimit:10;}
	.st467{fill:#979939;}
	.st468{fill:#F2E971;}
	.st469{fill:#172E00;}
	.st470{fill:#503225;stroke:#0A0A0A;stroke-width:0.7428;stroke-miterlimit:10;}
	.st471{fill:#7D818F;stroke:#161616;stroke-width:0.5;}
	.st472{fill:#A3A5B5;stroke:#161616;stroke-width:0.5;}
	.st473{fill:#898A99;stroke:#161616;stroke-width:0.5;}
	.st474{fill:#70828F;stroke:#161616;stroke-width:0.5;}
	.st475{clip-path:url(#SVGID_673_);}
	.st476{fill:#905B42;stroke:#0A0A0A;stroke-width:0.6419;stroke-miterlimit:10;}
	.st477{opacity:0.3;fill:#D8A287;stroke:#0C0C0C;stroke-width:0.4887;}
	.st478{fill:#7C482E;stroke:#161616;stroke-width:0.4887;}
	.st479{fill:#503225;stroke:#0A0A0A;stroke-width:1.3033;stroke-miterlimit:10;}
	.st480{fill:#D7A400;}
	.st481{fill:#F9BE00;}
	.st482{fill:#503225;stroke:#0A0A0A;stroke-width:1.1826;stroke-miterlimit:10;}
	.st483{opacity:0.25;fill:#76000A;stroke:#141414;stroke-width:0.3527;}
	.st484{fill:#503225;stroke:#0A0A0A;stroke-width:0.5913;stroke-miterlimit:10;}
	.st485{fill:#7D818F;stroke:#141414;stroke-width:0.2843;}
	.st486{fill:#A3A5B5;stroke:#141414;stroke-width:0.2843;}
	.st487{fill:#898A99;stroke:#141414;stroke-width:0.2843;}
	.st488{fill:#70828F;stroke:#141414;stroke-width:0.2843;}
	.st489{fill:#7D818F;stroke:#141414;stroke-width:0.3705;}
	.st490{fill:#A3A5B5;stroke:#141414;stroke-width:0.3705;}
	.st491{fill:#898A99;stroke:#141414;stroke-width:0.3705;}
	.st492{fill:#70828F;stroke:#141414;stroke-width:0.3705;}
	.st493{fill:#905B42;stroke:#0A0A0A;stroke-width:0.7518;stroke-miterlimit:10;}
	.st494{fill:#905B42;stroke:#0A0A0A;stroke-width:0.3942;stroke-miterlimit:10;}
	.st495{fill:#FFF1AC;}
	.st496{fill:#DCD096;}
	.st497{fill:none;stroke:#0D131A;stroke-width:0.7251;stroke-miterlimit:10;}
	.st498{clip-path:url(#SVGID_679_);}
	.st499{fill:#FFFBDA;}
	.st500{fill:#DCD9BD;}
	.st501{fill:#914897;}
	.st502{fill:#7F3C83;}
	.st503{fill:#BA0031;}
	.st504{fill:#990024;}
	.st505{fill:#D4902A;stroke:#190000;stroke-width:0.5313;stroke-miterlimit:10;}
	.st506{fill:#CFAA74;}
	.st507{fill:#F4B145;stroke:#190000;stroke-width:0.5313;stroke-miterlimit:10;}
	.st508{fill:#D4902A;stroke:#200000;stroke-width:0.5313;stroke-miterlimit:10;}
	.st509{fill:#D4902A;stroke:#200000;stroke-width:0.1328;stroke-miterlimit:10;}
	.st510{fill:#8C1C00;stroke:#190000;stroke-width:0.5313;stroke-miterlimit:10;}
	.st511{fill:#99610D;}
	.st512{fill:#F4B145;}
	.st513{fill:#190000;}
	.st514{fill:#503225;stroke:#0A0A0A;stroke-width:0.6492;stroke-miterlimit:10;}
	.st515{fill:#7D818F;stroke:#161616;stroke-width:0.2074;}
	.st516{fill:#A3A5B5;stroke:#161616;stroke-width:0.2074;}
	.st517{fill:#898A99;stroke:#161616;stroke-width:0.2074;}
	.st518{fill:#70828F;stroke:#161616;stroke-width:0.2074;}
	.st519{fill:none;stroke:#0A0A0A;stroke-width:0.6492;stroke-miterlimit:10;}
	.st520{opacity:0.1;clip-path:url(#SVGID_683_);}
	.st521{fill:url(#SVGID_684_);}
	.st522{fill:url(#SVGID_685_);}
	.st523{fill:url(#SVGID_686_);}
	.st524{fill:url(#SVGID_687_);}
	.st525{fill:url(#SVGID_688_);}
	.st526{fill:url(#SVGID_689_);}
	.st527{fill:url(#SVGID_690_);}
	.st528{fill:url(#SVGID_691_);}
	.st529{fill:url(#SVGID_692_);}
	.st530{fill:url(#SVGID_693_);}
	.st531{fill:url(#SVGID_694_);}
	.st532{fill:url(#SVGID_695_);}
	.st533{fill:url(#SVGID_696_);}
	.st534{fill:url(#SVGID_697_);}
	.st535{fill:url(#SVGID_698_);}
	.st536{fill:url(#SVGID_699_);}
	.st537{fill:url(#SVGID_700_);}
	.st538{fill:url(#SVGID_701_);}
	.st539{fill:url(#SVGID_702_);}
	.st540{fill:url(#SVGID_703_);}
	.st541{fill:url(#SVGID_704_);}
	.st542{fill:url(#SVGID_705_);}
	.st543{fill:url(#SVGID_706_);}
	.st544{fill:url(#SVGID_707_);}
	.st545{fill:url(#SVGID_708_);}
	.st546{fill:url(#SVGID_709_);}
	.st547{fill:url(#SVGID_710_);}
	.st548{fill:url(#SVGID_711_);}
	.st549{fill:url(#SVGID_712_);}
	.st550{fill:url(#SVGID_713_);}
	.st551{fill:url(#SVGID_714_);}
	.st552{fill:url(#SVGID_715_);}
	.st553{fill:url(#SVGID_716_);}
	.st554{fill:url(#SVGID_717_);}
	.st555{fill:url(#SVGID_718_);}
	.st556{fill:url(#SVGID_719_);}
	.st557{fill:url(#SVGID_720_);}
	.st558{fill:url(#SVGID_721_);}
	.st559{fill:url(#SVGID_722_);}
	.st560{fill:url(#SVGID_723_);}
	.st561{fill:url(#SVGID_724_);}
	.st562{fill:url(#SVGID_725_);}
	.st563{fill:url(#SVGID_726_);}
	.st564{fill:url(#SVGID_727_);}
	.st565{fill:url(#SVGID_728_);}
	.st566{fill:url(#SVGID_729_);}
	.st567{fill:url(#SVGID_730_);}
	.st568{fill:url(#SVGID_731_);}
	.st569{fill:url(#SVGID_732_);}
	.st570{fill:url(#SVGID_733_);}
	.st571{fill:url(#SVGID_734_);}
	.st572{fill:url(#SVGID_735_);}
	.st573{fill:url(#SVGID_736_);}
	.st574{fill:url(#SVGID_737_);}
	.st575{fill:url(#SVGID_738_);}
	.st576{fill:url(#SVGID_739_);}
	.st577{fill:url(#SVGID_740_);}
	.st578{fill:url(#SVGID_741_);}
	.st579{fill:url(#SVGID_742_);}
	.st580{fill:url(#SVGID_743_);}
	.st581{fill:url(#SVGID_744_);}
	.st582{fill:url(#SVGID_745_);}
	.st583{fill:url(#SVGID_746_);}
	.st584{fill:url(#SVGID_747_);}
	.st585{fill:url(#SVGID_748_);}
	.st586{fill:url(#SVGID_749_);}
	.st587{fill:url(#SVGID_750_);}
	.st588{fill:url(#SVGID_751_);}
	.st589{fill:url(#SVGID_752_);}
	.st590{fill:url(#SVGID_753_);}
	.st591{fill:url(#SVGID_754_);}
	.st592{fill:url(#SVGID_755_);}
	.st593{fill:url(#SVGID_756_);}
	.st594{fill:url(#SVGID_757_);}
	.st595{fill:url(#SVGID_758_);}
	.st596{fill:url(#SVGID_759_);}
	.st597{fill:url(#SVGID_760_);}
	.st598{fill:url(#SVGID_761_);}
	.st599{fill:url(#SVGID_762_);}
	.st600{fill:url(#SVGID_763_);}
	.st601{fill:url(#SVGID_764_);}
	.st602{fill:url(#SVGID_765_);}
	.st603{fill:url(#SVGID_766_);}
	.st604{fill:url(#SVGID_767_);}
	.st605{fill:url(#SVGID_768_);}
	.st606{fill:url(#SVGID_769_);}
	.st607{fill:url(#SVGID_770_);}
	.st608{fill:url(#SVGID_771_);}
	.st609{fill:url(#SVGID_772_);}
	.st610{fill:url(#SVGID_773_);}
	.st611{fill:url(#SVGID_774_);}
	.st612{fill:url(#SVGID_775_);}
	.st613{fill:url(#SVGID_776_);}
	.st614{fill:url(#SVGID_777_);}
	.st615{fill:url(#SVGID_778_);}
	.st616{fill:url(#SVGID_779_);}
	.st617{fill:url(#SVGID_780_);}
	.st618{fill:url(#SVGID_781_);}
	.st619{fill:url(#SVGID_782_);}
	.st620{fill:url(#SVGID_783_);}
	.st621{fill:url(#SVGID_784_);}
	.st622{fill:url(#SVGID_785_);}
	.st623{fill:#111314;}
	.st624{fill:#B92B30;}
	.st625{fill:#3E191B;}
	.st626{fill:#2F3031;}
	.st627{fill:#331719;}
	.st628{fill:#D5D5D5;}
	.st629{fill:#B1B1B2;}
	.st630{fill:#B2B3B3;}
	.st631{fill:#4A1B1D;}
	.st632{fill:#832326;}
	.st633{fill:#D4D4D5;}
	.st634{fill:#7C2225;}
	.st635{fill:#A7A8A8;}
	.st636{fill:#333435;}
	.st637{fill:#373839;}
	.st638{fill:#414243;}
	.st639{fill:#531C1E;}
	.st640{fill:#3A3C3C;}
	.st641{fill:#545555;}
	.st642{fill:#363839;}
	.st643{fill:#58595A;}
	.st644{fill:#515252;}
	.st645{fill:#565758;}
	.st646{fill:#565858;}
	.st647{fill:#515253;}
	.st648{fill:#454647;}
	.st649{fill:#792125;}
	.st650{fill:#404142;}
	.st651{fill:#96262A;}
	.st652{fill:#4F5051;}
	.st653{fill:#444546;}
	.st654{fill:#892427;}
	.st655{fill:#606161;}
	.st656{fill:#4B4C4D;}
	.st657{fill:#3C3D3E;}
	.st658{fill:#3F4041;}
	.st659{fill:#4D4F50;}
	.st660{fill:#832327;}
	.st661{fill:#7B2225;}
	.st662{fill:#C5C5C5;}
	.st663{fill:#C0C0C1;}
	.st664{fill:#D6D6D6;}
	.st665{fill:#CDCDCE;}
	.st666{fill:#C9CACA;}
	.st667{fill:#CFCFCF;}
	.st668{fill:#D0D0D0;}
	.st669{fill:#CACBCB;}
	.st670{fill:#A9A9AA;}
	.st671{fill:#D7D7D7;}
	.st672{fill:#DBDBDB;}
	.st673{fill:#D3D3D3;}
	.st674{fill:#C4C4C4;}
	.st675{fill:#C5C6C6;}
	.st676{fill:#D8D8D8;}
	.st677{fill:#707171;}
	.st678{fill:#CECFCF;}
	.st679{fill:#393B3C;}
	.st680{fill:#B8B8B9;}
	.st681{fill:#121415;}
	.st682{fill:#131516;}
	.st683{fill:#F0F0F0;}
	.st684{fill:#5E5F60;}
	.st685{fill:#EBECEC;}
	.st686{fill:#243B41;}
	.st687{fill:none;stroke:#243B41;stroke-width:1.5;stroke-miterlimit:10;}
	.st688{opacity:0.1;fill:#243B41;}
	.st689{opacity:0.2;fill:#243B41;}
	.st690{clip-path:url(#SVGID_787_);}
	.st691{clip-path:url(#SVGID_961_);}
	.st692{clip-path:url(#SVGID_963_);enable-background:new    ;}
	.st693{clip-path:url(#SVGID_965_);enable-background:new    ;}
	.st694{clip-path:url(#SVGID_967_);enable-background:new    ;}
	.st695{clip-path:url(#SVGID_969_);enable-background:new    ;}
	.st696{clip-path:url(#SVGID_971_);enable-background:new    ;}
	.st697{clip-path:url(#SVGID_973_);enable-background:new    ;}
	.st698{clip-path:url(#SVGID_975_);enable-background:new    ;}
	.st699{clip-path:url(#SVGID_977_);enable-background:new    ;}
	.st700{clip-path:url(#SVGID_979_);enable-background:new    ;}
	.st701{clip-path:url(#SVGID_981_);enable-background:new    ;}
	.st702{clip-path:url(#SVGID_983_);enable-background:new    ;}
	.st703{clip-path:url(#SVGID_985_);enable-background:new    ;}
	.st704{clip-path:url(#SVGID_987_);enable-background:new    ;}
	.st705{clip-path:url(#SVGID_989_);enable-background:new    ;}
	.st706{clip-path:url(#SVGID_991_);enable-background:new    ;}
	.st707{clip-path:url(#SVGID_993_);enable-background:new    ;}
	.st708{clip-path:url(#SVGID_995_);enable-background:new    ;}
	.st709{clip-path:url(#SVGID_997_);enable-background:new    ;}
	.st710{clip-path:url(#SVGID_999_);enable-background:new    ;}
	.st711{clip-path:url(#SVGID_1001_);enable-background:new    ;}
	.st712{clip-path:url(#SVGID_1003_);enable-background:new    ;}
	.st713{clip-path:url(#SVGID_1005_);enable-background:new    ;}
	.st714{clip-path:url(#SVGID_1007_);enable-background:new    ;}
	.st715{clip-path:url(#SVGID_1009_);enable-background:new    ;}
	.st716{clip-path:url(#SVGID_1011_);enable-background:new    ;}
	.st717{clip-path:url(#SVGID_1013_);enable-background:new    ;}
	.st718{clip-path:url(#SVGID_1015_);enable-background:new    ;}
	.st719{clip-path:url(#SVGID_1017_);enable-background:new    ;}
	.st720{clip-path:url(#SVGID_1019_);enable-background:new    ;}
	.st721{clip-path:url(#SVGID_1021_);enable-background:new    ;}
	.st722{clip-path:url(#SVGID_1023_);enable-background:new    ;}
	.st723{clip-path:url(#SVGID_1025_);enable-background:new    ;}
	.st724{clip-path:url(#SVGID_1027_);enable-background:new    ;}
	.st725{clip-path:url(#SVGID_1029_);enable-background:new    ;}
	.st726{clip-path:url(#SVGID_1031_);enable-background:new    ;}
	.st727{clip-path:url(#SVGID_1033_);enable-background:new    ;}
	.st728{clip-path:url(#SVGID_1035_);enable-background:new    ;}
	.st729{clip-path:url(#SVGID_1037_);enable-background:new    ;}
	.st730{clip-path:url(#SVGID_1039_);enable-background:new    ;}
	.st731{clip-path:url(#SVGID_1041_);enable-background:new    ;}
	.st732{clip-path:url(#SVGID_1043_);enable-background:new    ;}
	.st733{clip-path:url(#SVGID_1045_);enable-background:new    ;}
	.st734{clip-path:url(#SVGID_1047_);enable-background:new    ;}
	.st735{clip-path:url(#SVGID_1049_);enable-background:new    ;}
	.st736{clip-path:url(#SVGID_1051_);enable-background:new    ;}
	.st737{clip-path:url(#SVGID_1053_);enable-background:new    ;}
	.st738{clip-path:url(#SVGID_1055_);enable-background:new    ;}
	.st739{clip-path:url(#SVGID_1057_);enable-background:new    ;}
	.st740{clip-path:url(#SVGID_1059_);enable-background:new    ;}
	.st741{clip-path:url(#SVGID_1061_);enable-background:new    ;}
	.st742{clip-path:url(#SVGID_1063_);enable-background:new    ;}
	.st743{clip-path:url(#SVGID_1065_);enable-background:new    ;}
	.st744{clip-path:url(#SVGID_1067_);enable-background:new    ;}
	.st745{clip-path:url(#SVGID_1069_);enable-background:new    ;}
	.st746{clip-path:url(#SVGID_1071_);enable-background:new    ;}
	.st747{clip-path:url(#SVGID_1073_);enable-background:new    ;}
	.st748{clip-path:url(#SVGID_1075_);enable-background:new    ;}
	.st749{clip-path:url(#SVGID_1077_);enable-background:new    ;}
	.st750{clip-path:url(#SVGID_1079_);enable-background:new    ;}
	.st751{clip-path:url(#SVGID_1081_);enable-background:new    ;}
	.st752{clip-path:url(#SVGID_1083_);enable-background:new    ;}
	.st753{clip-path:url(#SVGID_1085_);enable-background:new    ;}
	.st754{clip-path:url(#SVGID_1087_);enable-background:new    ;}
	.st755{clip-path:url(#SVGID_1089_);enable-background:new    ;}
	.st756{clip-path:url(#SVGID_1091_);enable-background:new    ;}
	.st757{clip-path:url(#SVGID_1093_);enable-background:new    ;}
	.st758{clip-path:url(#SVGID_1095_);enable-background:new    ;}
	.st759{clip-path:url(#SVGID_1097_);enable-background:new    ;}
	.st760{clip-path:url(#SVGID_1099_);enable-background:new    ;}
	.st761{clip-path:url(#SVGID_1101_);enable-background:new    ;}
	.st762{clip-path:url(#SVGID_1103_);enable-background:new    ;}
	.st763{clip-path:url(#SVGID_1105_);enable-background:new    ;}
	.st764{clip-path:url(#SVGID_1107_);enable-background:new    ;}
	.st765{clip-path:url(#SVGID_1109_);enable-background:new    ;}
	.st766{clip-path:url(#SVGID_1111_);enable-background:new    ;}
	.st767{clip-path:url(#SVGID_1113_);enable-background:new    ;}
	.st768{clip-path:url(#SVGID_1115_);enable-background:new    ;}
	.st769{clip-path:url(#SVGID_1117_);enable-background:new    ;}
	.st770{clip-path:url(#SVGID_1119_);enable-background:new    ;}
	.st771{clip-path:url(#SVGID_1121_);enable-background:new    ;}
	.st772{clip-path:url(#SVGID_1123_);enable-background:new    ;}
	.st773{clip-path:url(#SVGID_1125_);enable-background:new    ;}
	.st774{clip-path:url(#SVGID_1127_);enable-background:new    ;}
	.st775{clip-path:url(#SVGID_1129_);enable-background:new    ;}
	.st776{clip-path:url(#SVGID_1131_);enable-background:new    ;}
	.st777{clip-path:url(#SVGID_1133_);enable-background:new    ;}
	.st778{clip-path:url(#SVGID_1135_);}
	.st779{clip-path:url(#SVGID_1311_);}
	.st780{clip-path:url(#SVGID_1317_);}
	.st781{clip-path:url(#SVGID_1323_);}
	.st782{clip-path:url(#SVGID_1329_);}
	.st783{clip-path:url(#SVGID_1335_);}
	.st784{clip-path:url(#SVGID_1341_);}
	.st785{clip-path:url(#SVGID_1347_);}
	.st786{clip-path:url(#SVGID_1353_);}
	.st787{clip-path:url(#SVGID_1359_);}
	.st788{fill:#FFF3C2;}
	.st789{fill:#CC5D00;}
	.st790{fill:#FBD6A0;}
	.st791{fill:#503225;stroke:#0A0A0A;stroke-width:0.4846;stroke-miterlimit:10;}
	.st792{opacity:0.25;fill:#76000A;stroke:#141414;stroke-width:0.1445;}
	.st793{fill:#503225;stroke:#0A0A0A;stroke-width:0.2423;stroke-miterlimit:10;}
	.st794{fill:#7D818F;stroke:#141414;stroke-width:0.1165;}
	.st795{fill:#A3A5B5;stroke:#141414;stroke-width:0.1165;}
	.st796{fill:#898A99;stroke:#141414;stroke-width:0.1165;}
	.st797{fill:#70828F;stroke:#141414;stroke-width:0.1165;}
	.st798{fill:#7D818F;stroke:#141414;stroke-width:0.1518;}
	.st799{fill:#A3A5B5;stroke:#141414;stroke-width:0.1518;}
	.st800{fill:#898A99;stroke:#141414;stroke-width:0.1518;}
	.st801{fill:#70828F;stroke:#141414;stroke-width:0.1518;}
	.st802{fill:#905B42;stroke:#0A0A0A;stroke-width:0.3081;stroke-miterlimit:10;}
	.st803{fill:#905B42;stroke:#0A0A0A;stroke-width:0.1615;stroke-miterlimit:10;}
	.st804{fill:#78472C;stroke:#0A0A0A;stroke-width:0.526;stroke-miterlimit:10;}
	.st805{fill:#B39D96;}
	.st806{fill:#A66144;stroke:#0A0A0A;stroke-width:0.526;stroke-miterlimit:10;}
	.st807{fill:#78472C;stroke:#111111;stroke-width:0.526;stroke-miterlimit:10;}
	.st808{fill:#78472C;stroke:#111111;stroke-width:0.1315;stroke-miterlimit:10;}
	.st809{fill:#962717;stroke:#0A0A0A;stroke-width:0.526;stroke-miterlimit:10;}
	.st810{fill:#381C0D;}
	.st811{fill:#A66144;}
	.st812{fill-rule:evenodd;clip-rule:evenodd;fill:#FEFEFE;}
	.st813{fill-rule:evenodd;clip-rule:evenodd;fill:#1D1D1D;}
	.st814{fill-rule:evenodd;clip-rule:evenodd;fill:#B92B30;}
	.st815{fill:none;stroke:#FFFFFF;stroke-width:1.5;stroke-miterlimit:10;}
	.st816{opacity:0.1;}
	.st817{opacity:0.2;}
	.st818{fill-rule:evenodd;clip-rule:evenodd;fill:#FFFFFF;}
	.st819{clip-path:url(#SVGID_1365_);}
	.st820{clip-path:url(#SVGID_1369_);}
</style>
<circle class="st117" cx="44.16" cy="44.16" r="44.16"/>
<g>
	<defs>
		<circle id="SVGID_1368_" cx="44.16" cy="44.16" r="44.16"/>
	</defs>
	<clipPath id="SVGID_1_">
		<use xlink:href="#SVGID_1368_"  style="overflow:visible;"/>
	</clipPath>
	<g style="clip-path:url(#SVGID_1_);">
		<g>
			<path class="st788" d="M67.84,90.09l-2.25,0.76c-1.12,0.18-2.2-0.05-3.25-0.7c-0.47-0.31-0.97-0.84-1.49-1.6
				c-0.51-0.72-0.87-1.4-1.08-2.03c-1.99-1.16-3.27-2.32-3.85-3.5c-0.94-1.95-1.9-4.99-2.87-9.11c-0.92-3.83-1.28-5.85-1.08-6.04
				c0.38-0.42,0.9-0.77,1.57-1.06c0.92-0.4,1.44-0.18,1.54,0.65c0.22,1.61,1.5,4.39,3.85,8.35c2.31,3.88,3.84,5.9,4.58,6.04
				c1.64,0.29,3.02,0.74,4.12,1.36c1.26,0.72,2.01,1.61,2.25,2.66c0.27,1.21,0.22,2.16-0.16,2.85
				C69.37,89.28,68.75,89.75,67.84,90.09"/>
			<path class="st262" d="M60.06,86.27c0.33,0.8,0.31,1.1-0.05,0.92c-1.59-0.89-2.77-1.77-3.55-2.66c-1.68-1.92-2.52-4.38-2.52-7.4
				c0-0.2,0.06-0.36,0.19-0.49c0.13-0.14,0.2-0.1,0.22,0.14c0.31,1.93,0.78,3.56,1.41,4.88C56.75,83.74,58.19,85.27,60.06,86.27"/>
			<path class="st262" d="M67.74,89.9c0.81-0.11,1.36-0.74,1.65-1.9c0.31-1.23,0.05-2.29-0.76-3.2c-0.7-0.81-1.73-1.41-3.06-1.79
				c-1.48-0.42-2.54-0.89-3.17-1.44c-1.81-1.57-3.61-4.12-5.42-7.64c-1.45-2.86-2.28-4.89-2.49-6.1c-0.05-0.25,0.03-0.41,0.24-0.46
				c0.2-0.04,0.33,0.03,0.38,0.19c0.63,2.33,1.9,4.98,3.79,7.94c1.63,2.51,3.04,4.3,4.23,5.37c0.36,0.31,1.32,0.72,2.87,1.25
				c1.52,0.49,2.64,1.09,3.36,1.82c0.89,0.89,1.27,2,1.17,3.33c-0.13,1.59-1.14,2.61-3.04,3.06c-0.25,0.07-0.34,0.03-0.27-0.14
				C67.29,90.03,67.46,89.93,67.74,89.9"/>
			<path class="st788" d="M35.59,91.15c-2.31-1.9-3.56-4.18-3.74-6.86c-0.07-1.07,0.86-3.44,2.79-7.13
				c2.17-4.14,3.48-7.46,3.93-9.97c0.2-1.12,1.14-1.92,2.82-2.39c1.08-0.29,2.39-0.43,3.93-0.43c0.96,0,2.39,0.61,4.31,1.82
				c1.88,1.17,3.23,2.29,4.04,3.33c1.3,1.68,2.28,4,2.93,6.97c0.87,4.08,0.45,7.67-1.25,10.76c-1.68,3.05-3.65,5.03-5.91,5.94
				c-1.34,0.52-3.47,0.77-6.4,0.73C40.28,93.89,37.79,92.97,35.59,91.15"/>
			<path class="st790" d="M32.26,86.13c0.85,1.46,2.48,2.78,4.88,3.96c2.39,1.14,4.71,1.74,6.97,1.82c2.06,0.07,4.01-0.23,5.85-0.92
				c1.48-0.56,2.76-1.31,3.85-2.25c-2.95,3.79-6.23,5.61-9.87,5.45c-3.04-0.13-5.62-0.94-7.75-2.44
				C34.13,90.28,32.82,88.41,32.26,86.13"/>
			<path class="st262" d="M68.76,87.87c0.05,1.55-0.58,2.61-1.9,3.17c-1.34,0.56-2.75,0.43-4.23-0.38c-1.57-0.87-2.5-2.19-2.79-3.96
				c-0.04-0.29,0.03-0.46,0.19-0.51c0.16-0.07,0.23,0.02,0.22,0.27c-0.04,0.9,0.6,1.89,1.9,2.95c1.41,1.16,2.76,1.46,4.07,0.92
				c1.32-0.54,1.86-1.47,1.63-2.79c-0.22-1.32-1.03-2.25-2.44-2.79c-0.27-0.11-0.34-0.21-0.22-0.3c0.14-0.09,0.34-0.09,0.6,0
				C67.72,85.08,68.71,86.22,68.76,87.87"/>
			<path class="st790" d="M45.46,67.43l4.53-0.3c2.46-0.02,3.7,0.23,3.74,0.73c0.05,0.72-0.11,1.26-0.49,1.6
				c-0.4,0.34-1.08,0.53-2.06,0.57l-2.79-0.35l-3.14-0.84c-0.67-0.2-1-0.44-1-0.73S44.64,67.59,45.46,67.43"/>
			<path class="st262" d="M38.65,92.64c2.39,0.96,4.86,1.22,7.43,0.79c2.76-0.45,5-1.64,6.69-3.58c1.52-1.7,2.52-3.49,3.01-5.37
				c0.9-3.58,0.41-7.94-1.49-13.09c-0.38-1.07-0.5-1.65-0.35-1.76c0.16-0.16,0.47,0.23,0.92,1.19c1.73,3.76,2.55,7.43,2.44,11
				c-0.13,3.72-1.26,6.69-3.42,8.89c-1.97,1.99-4.35,3.21-7.13,3.66c-2.82,0.45-5.56,0.03-8.21-1.27c-0.36-0.18-0.52-0.33-0.49-0.46
				C38.09,92.49,38.29,92.49,38.65,92.64"/>
			<path class="st262" d="M37,91.77c0.16,0.09,0.23,0.21,0.22,0.35c-0.04,0.13-0.16,0.15-0.38,0.08c-1.55-0.56-2.82-1.44-3.79-2.63
				c-1.01-1.23-1.55-2.6-1.63-4.12c-0.09-2.48,0.56-4.92,1.95-7.35c2.02-3.51,3.49-6.88,4.39-10.14c0.18-0.67,0.37-0.87,0.57-0.6
				c0.2,0.27,0.27,0.56,0.22,0.87c-0.61,3.27-1.88,6.51-3.79,9.73c-1.55,2.58-2.27,5.02-2.14,7.32C32.77,88.16,34.23,90.32,37,91.77
				"/>
			<path class="st262" d="M74.59,35.55c3-1.3,4.85-2.07,5.56-2.3c0.72-0.25,1.21-0.13,1.46,0.38c0.25,0.51,0,1.01-0.76,1.52
				c-5.62,3.83-9.24,6.35-10.87,7.56l0.7,1.92c0.45,1.39,0.57,2.87,0.35,4.45l6.78,0.43c3.52,0.27,5.89,0.57,7.1,0.89
				c0.51,0.14,0.76,0.47,0.76,0.98c-0.02,0.51-0.31,0.81-0.87,0.92l-15.1,1.46c-1.34,3.09-3.37,5.8-6.1,8.13
				c-3.07,2.6-6.69,4.43-10.84,5.48c-7.43,1.86-13.9,2.17-19.41,0.92c-6.09-1.37-9.93-4.48-11.52-9.32
				c-1.73-5.19-0.66-10.55,3.23-16.1c3.85-5.51,9.18-9.37,15.99-11.57c5.28-1.72,10.39-1.83,15.34-0.33
				c4.7,1.43,8.45,4.01,11.25,7.75C68.92,38.06,71.23,37,74.59,35.55"/>
			<path class="st788" d="M56.38,64.42c1.08-0.8,1.79-1.51,2.11-2.14c0.18-0.36,0.42-0.55,0.7-0.57c0.29-0.02,0.38,0.14,0.27,0.49
				c-0.54,1.64-1.45,3.04-2.74,4.17c-1.05,0.94-2.12,1.54-3.23,1.82c-1.77,0.47-3.62,0.57-5.56,0.3c-1.84-0.27-3.6-0.83-5.26-1.68
				c-0.31-0.18-0.32-0.4-0.03-0.65c0.27-0.27,0.58-0.36,0.92-0.27l3.58,0.73l5.12-0.22C53.73,66,55.1,65.34,56.38,64.42"/>
			<path class="st788" d="M80.2,33.98c0.25-0.11,0.43-0.08,0.54,0.08c0.13,0.14,0.05,0.32-0.22,0.51l-12.03,7.83
				c-0.11,0.05-0.14,0.13-0.11,0.22c0.42,0.92,0.72,1.72,0.92,2.39c0.47,1.41,0.57,3.06,0.3,4.96l0.16,0.11l7.62,0.3l6.83,0.65
				c0.31,0.05,0.47,0.16,0.49,0.33c0.02,0.18-0.13,0.28-0.43,0.3l-15.31,1.11l-0.14,0.11c-1.08,3.05-2.93,5.76-5.53,8.1
				c-2.95,2.66-6.48,4.5-10.6,5.53c-7.14,1.77-13.39,2-18.76,0.68c-5.67-1.39-9.24-4.3-10.71-8.73c-1.63-4.95-0.59-10.05,3.12-15.29
				c3.67-5.22,8.74-8.88,15.21-10.98c5.15-1.66,10.08-1.71,14.8-0.14c4.46,1.48,7.97,4.12,10.52,7.91l0.38,0.05
				C69.36,38.98,73.68,36.96,80.2,33.98"/>
			<path class="st262" d="M58.9,62.9c0.13-0.2,0.28-0.26,0.46-0.19c0.18,0.07,0.23,0.21,0.14,0.41c-1.3,2.62-3.32,4.35-6.07,5.2
				c-2.35,0.74-4.84,0.76-7.48,0.05l-0.65-0.33c-0.27-0.16-0.31-0.23-0.11-0.19c3.11,0.63,5.86,0.51,8.27-0.38
				C55.8,66.62,57.62,65.09,58.9,62.9"/>
			<path class="st135" d="M53.67,46.8c-0.38-1.21-0.32-2.81,0.19-4.8c0.6-2.37,1.65-3.76,3.17-4.17c1.45-0.38,2.92-0.03,4.42,1.06
				c1.64,1.17,2.69,2.86,3.14,5.07c0.29,1.41,0.02,2.8-0.81,4.17c-0.76,1.25-1.64,1.98-2.63,2.2c-1.41,0.34-2.69,0.37-3.85,0.08
				C55.51,49.94,54.3,48.74,53.67,46.8"/>
			<path class="st788" d="M6.3,55.42c-0.43,0.03-0.63-0.12-0.6-0.45c0.03-0.31,0.25-0.58,0.67-0.81c0.34-0.19,3.62-0.71,9.82-1.54
				l9.91-1.25c0.69-0.04,0.98,0.47,0.89,1.54c-0.07,1.09-0.34,1.66-0.81,1.7L6.3,55.42"/>
			<path class="st788" d="M29.22,60.01c0.69-0.24,1.21,0.11,1.55,1.06c0.34,0.93,0.33,1.52-0.04,1.75
				c-0.29,0.19-3.34,1.44-9.16,3.75L12.5,70.1c-0.83,0.16-1.16-0.03-0.99-0.56c0.11-0.32,3.05-1.98,8.81-4.98
				C25.72,61.74,28.69,60.23,29.22,60.01"/>
			<path class="st333" d="M50.28,55.96c-0.85-0.22,0.39-0.72,3.71-1.52c3.27-0.78,4.88-0.89,4.82-0.35c-0.38,3.29-1.31,6-2.79,8.13
				c-0.09-1.9-0.97-3.47-2.63-4.72C52.4,56.75,51.36,56.24,50.28,55.96"/>
			<path class="st334" d="M44.67,57.92l4.69-1.71c1.19-0.34,2.55,0.14,4.07,1.46c1.59,1.34,2.45,2.85,2.57,4.53
				c0.05,0.7-0.3,1.36-1.06,1.95c-0.63,0.45-1.59,0.91-2.87,1.38c-2.01,0.72-4.46,0.32-7.37-1.22c-2.73-1.45-4.63-3.14-5.69-5.07
				c-0.33-0.61-0.14-0.84,0.57-0.68C40.75,58.86,42.45,58.64,44.67,57.92"/>
			<path class="st262" d="M6.15,55.8c-0.64-0.01-1.01-0.25-1.1-0.72c-0.09-0.43,0.13-0.78,0.65-1.05c1.07-0.54,4.39-1.2,9.96-1.99
				c5.38-0.76,8.56-1.08,9.53-0.96c0.48,0.06,0.72,0.19,0.72,0.4c0,0.19-0.22,0.3-0.67,0.31c-2.03,0.06-5.47,0.44-10.31,1.14
				c-4.82,0.69-7.59,1.19-8.32,1.52c-0.31,0.13-0.5,0.28-0.56,0.43c-0.07,0.18,0.13,0.28,0.63,0.29l8.43-0.43l10.07-0.45
				c0.51,0,0.79,0.14,0.85,0.43c0.04,0.27-0.24,0.43-0.85,0.47L6.15,55.8"/>
			<path class="st262" d="M29.18,63.09l0.71,0.04c0.1,0.17,0.03,0.32-0.22,0.43l-17.54,6.96c-0.43,0.16-0.74,0.05-0.93-0.32
				c-0.19-0.39-0.09-0.75,0.28-1.1c0.79-0.69,3.53-2.28,8.23-4.76c4.45-2.36,7.14-3.7,8.06-4.03c0.34-0.13,0.56-0.09,0.65,0.11
				c0.09,0.2-0.02,0.36-0.32,0.47c-0.96,0.42-3.26,1.56-6.9,3.43c-4.12,2.13-7,3.69-8.64,4.7c-0.34,0.22-0.53,0.41-0.56,0.58
				l0.84-0.02l7.56-3C25.03,64.7,27.96,63.54,29.18,63.09"/>
			<path class="st262" d="M64.16,43.2c-0.11-0.43-0.05-0.61,0.19-0.54l0.43,0.35c0.56,1.93,0.35,3.67-0.62,5.2
				c-0.8,1.26-1.83,2.1-3.09,2.49c-1.45,0.47-2.9,0.4-4.36-0.22c-1.59-0.67-2.7-1.79-3.33-3.36c-0.02-0.07,0.03-0.17,0.14-0.3
				c0.11-0.14,0.19-0.15,0.24-0.03c0.76,1.59,1.85,2.67,3.28,3.23c1.23,0.47,2.52,0.5,3.88,0.08c1.23-0.36,2.17-1.14,2.82-2.33
				C64.43,46.46,64.57,44.93,64.16,43.2"/>
			<path class="st262" d="M58.38,54.15c0.05-0.33,0.2-0.51,0.43-0.54c0.25-0.02,0.36,0.13,0.33,0.43c-0.42,3.4-1.26,6.17-2.55,8.32
				c-1.16,1.88-2.48,3.04-3.98,3.5c-2.35,0.7-4.95,0.33-7.81-1.14c-2.75-1.39-4.95-3.34-6.61-5.85c-0.11-0.16-0.02-0.23,0.27-0.19
				c0.27,0.02,0.48,0.14,0.62,0.35c1.16,1.83,3.03,3.44,5.61,4.85c2.98,1.64,5.57,2.07,7.75,1.27c2.02-0.74,3.55-2.47,4.58-5.18
				C57.44,58.87,57.9,56.93,58.38,54.15"/>
			<path class="st262" d="M60.88,38.08c1.88,1.07,3.17,2.7,3.88,4.91c0.07,0.2,0.02,0.37-0.16,0.51c-0.18,0.14-0.31,0.07-0.38-0.22
				c-0.47-1.77-1.53-3.18-3.17-4.23c-1.52-0.96-2.86-1.24-4.04-0.84c-1.26,0.43-2.2,1.54-2.79,3.31c-0.58,1.66-0.72,3.48-0.43,5.45
				c0.04,0.18-0.02,0.29-0.16,0.33c-0.13,0.05-0.21,0-0.24-0.16c-0.43-1.95-0.33-3.96,0.33-6.02c0.69-2.1,1.68-3.37,2.98-3.82
				C57.87,36.89,59.27,37.15,60.88,38.08"/>
			<path class="st262" d="M42.91,52.06c-1.7-2.29-3.7-3.64-6.02-4.04c-2.58-0.45-4.82,0.48-6.69,2.79
				c-0.16,0.18-0.29,0.21-0.38,0.08c-0.11-0.13-0.1-0.3,0.03-0.51c1.57-2.66,3.76-3.83,6.56-3.52c2.78,0.29,5.07,1.91,6.86,4.85
				c0.16,0.29,0.19,0.47,0.08,0.54C43.21,52.32,43.07,52.26,42.91,52.06"/>
			<path class="st262" d="M54.18,54.96c0.13-0.58,0.87-0.94,2.22-1.08c1.34-0.14,2.07,0.02,2.2,0.49c0.13,0.42-0.04,1.07-0.49,1.95
				c-0.43,0.87-0.8,1.31-1.08,1.33c-0.25,0.04-0.8-0.34-1.65-1.14S54.13,55.2,54.18,54.96"/>
			<path class="st135" d="M55.02,54.99c0.09-0.38,0.59-0.62,1.49-0.73c0.89-0.09,1.37,0.02,1.46,0.33c0.07,0.29-0.04,0.72-0.33,1.3
				c-0.29,0.58-0.52,0.88-0.7,0.89c-0.18,0.02-0.55-0.23-1.11-0.76C55.26,55.48,54.99,55.13,55.02,54.99"/>
			<path class="st262" d="M38.9,59.27c0.02-0.52,0.75-0.84,2.2-0.95c1.43-0.13,2.17-0.05,2.22,0.24c0.09,0.43-0.14,1.09-0.68,1.98
				c-0.52,0.8-0.92,1.23-1.19,1.3c-0.22,0.04-0.7-0.32-1.44-1.06C39.27,60.03,38.9,59.52,38.9,59.27"/>
			<path class="st135" d="M39.63,59.3c0-0.38,0.47-0.62,1.41-0.73c0.94-0.13,1.43-0.03,1.46,0.3c0.04,0.31-0.14,0.74-0.51,1.3
				c-0.36,0.52-0.63,0.8-0.81,0.84c-0.14,0.04-0.44-0.19-0.89-0.68C39.83,59.82,39.61,59.48,39.63,59.3"/>
			<path class="st262" d="M45.24,57.29l6.07-2.39c2.24-0.72,4.73-1.26,7.45-1.63c0.8-0.11,1.32-0.51,1.57-1.22
				c0.07-0.25,0.18-0.33,0.33-0.24c0.14,0.07,0.19,0.24,0.14,0.51c-0.13,0.52-0.42,0.97-0.87,1.33c-0.4,0.31-0.76,0.46-1.08,0.46
				l-3.33,0.6l-4.01,1c-1.61,0.8-3.23,1.49-4.88,2.09c-3.22,1.16-5.78,1.56-7.7,1.22c-0.31-0.05-0.67-0.22-1.08-0.49l-0.79-0.76
				c-0.14-0.22-0.16-0.37-0.05-0.46c0.09-0.11,0.25-0.08,0.49,0.08c0.65,0.43,1.16,0.68,1.52,0.73
				C40.79,58.4,42.87,58.12,45.24,57.29"/>
			<path class="st262" d="M59.06,44.77c0.38,1.17,0.63,2.2,0.76,3.09c0.13,0.89,0.09,1.36-0.11,1.44c-0.2,0.07-0.51-0.29-0.92-1.08
				c-0.42-0.8-0.81-1.78-1.19-2.95c-0.38-1.16-0.63-2.19-0.76-3.09c-0.13-0.89-0.09-1.36,0.11-1.41c0.2-0.07,0.51,0.29,0.92,1.08
				C58.28,42.62,58.68,43.6,59.06,44.77"/>
			<path class="st135" d="M57.84,42.52c0.23,0.69,0.27,1.07,0.11,1.14c-0.16,0.04-0.36-0.29-0.6-0.98
				c-0.22-0.67-0.24-1.04-0.08-1.11C57.42,41.52,57.61,41.83,57.84,42.52"/>
			<path class="st262" d="M53.29,57.64c-1.34-1.1-2.76-1.61-4.26-1.52c-0.14,0.02-0.13-0.02,0.05-0.11l0.57-0.22l1.54,0.22
				c0.92,0.23,1.7,0.6,2.33,1.08c0.9,0.72,1.62,1.64,2.14,2.76c0.49,1.05,0.65,1.89,0.49,2.52l-0.27,0.6
				c-0.11,0.09-0.15,0.02-0.14-0.22c0.07-0.76-0.1-1.6-0.51-2.52C54.79,59.2,54.14,58.33,53.29,57.64"/>
			<path class="st788" d="M43.77,51.22c-0.23-0.78-0.65-1.53-1.25-2.25c-0.54-0.67-1.07-1.09-1.57-1.27l-0.14-0.14
				c0.04-0.07,0.13-0.1,0.27-0.08c0.76,0.14,1.41,0.61,1.95,1.41c0.45,0.65,0.78,1.4,0.98,2.25l-0.05,0.27
				C43.89,51.45,43.83,51.38,43.77,51.22"/>
			<path class="st262" d="M49.17,31.81c0.23-0.07,0.42,0.04,0.54,0.33c0.13,0.27,0.1,0.45-0.08,0.54l-4.61,1.71l-4.93,1.76
				c-0.33,0.13-0.56,0.01-0.7-0.35c-0.13-0.34-0.04-0.58,0.27-0.7C41.64,34.35,44.81,33.26,49.17,31.81"/>
			<path class="st262" d="M50.42,35.42c0.23-0.07,0.41,0.04,0.51,0.33c0.11,0.29,0.07,0.48-0.11,0.57l-9.57,3.23
				c-0.33,0.13-0.53,0.03-0.62-0.3c-0.09-0.31,0.02-0.51,0.33-0.62l4.85-1.68L50.42,35.42"/>
			<g id="cvjJrk.tif_3_">
				<g>
					<path class="st791" d="M33.42,76.92c0,0,2.08,1.67,4.6,2.57c4.51,1.61,8.64-4.31,7.29-10.64c-0.07-0.31-0.11-0.23-0.19-0.47
						l0.38-0.13c0,0,3,1.15,3.11,6.33c2.1,0.02,7.2,0.32,8.7,1.07c0,0,2.58,10.17-2.28,17.95c0,0-7.96,2.15-12,0.68
						c-5.88-2.14-10.56-10.75-11.28-11.24C30.99,82.53,33.06,77.28,33.42,76.92z"/>
					<path class="st792" d="M31.75,83.05c-0.3-1.07,1.16-5.54,1.55-6.03c0,0,1.86,1.78,4.29,2.69c4.64,1.73,9-4.15,8.04-10.84
						c0-0.03-0.01-0.05-0.01-0.08c1.79,7.83,0.97,14.48,0.25,18.16c-0.29,1.49-0.8,2.86-1.46,4.28c-0.79,1.71-2.98,2.66-4.18,1.54
						C37.01,89.76,31.92,83.66,31.75,83.05z"/>
					<path class="st793" d="M54.48,75.28c-0.12-0.52-0.21-1.04-0.3-1.53c-0.15-0.85-0.37-1.68-0.6-2.51
						c-0.07-0.27-0.79-2.85-0.99-2.82c0,0,1.06-0.16,1.06-0.16c0.11-0.02,0.81,2.04,0.86,2.17c0.43,1.15,0.82,2.36,1.19,3.55
						c0.19,0.62,0.38,1.24,0.57,1.87c0.16,0.54,0.44,1.15,0.37,1.73c-0.02,0.15-0.06,0.3-0.16,0.41c-0.1,0.11-0.25,0.19-0.4,0.15
						c-0.09-0.02-0.17-0.08-0.24-0.15C55.09,77.29,54.72,76.29,54.48,75.28z"/>
					<g>
						<path class="st794" d="M55.83,77.43c-0.26-0.02-0.46-0.56-0.43-1.21c0.03-0.65,0.26-1.15,0.53-1.13l0.24,0.02l0.03,0
							l-0.13,2.34L55.83,77.43z"/>
						<path class="st795" d="M55.64,76.24c-0.03,0.65,0.16,1.19,0.43,1.21c0.26,0.02,0.5-0.48,0.53-1.13
							c0.03-0.65-0.16-1.19-0.43-1.21C55.9,75.09,55.67,75.59,55.64,76.24z"/>
						<path class="st796" d="M55.85,76.26c-0.02,0.47,0.09,0.86,0.26,0.87c0.16,0.01,0.31-0.35,0.33-0.82
							c0.02-0.47-0.09-0.86-0.26-0.87C56.02,75.42,55.87,75.79,55.85,76.26z"/>
						<path class="st797" d="M56.3,76.3c0.02-0.4-0.07-0.75-0.19-0.85c0.02-0.01,0.04-0.02,0.07-0.02c0.16,0.01,0.28,0.41,0.26,0.87
							c-0.02,0.47-0.17,0.84-0.33,0.82c-0.02,0-0.04-0.01-0.06-0.03C56.17,77.03,56.29,76.7,56.3,76.3z"/>
					</g>
					<g>
						<path class="st798" d="M48.04,77.19c-0.34-0.03-0.59-0.74-0.56-1.58c0.04-0.84,0.34-1.5,0.69-1.47l0.31,0.03l0.03,0
							l-0.16,3.04L48.04,77.19z"/>
						<path class="st799" d="M47.79,75.64c-0.04,0.84,0.21,1.55,0.56,1.58c0.34,0.03,0.65-0.63,0.69-1.47
							c0.04-0.84-0.21-1.55-0.56-1.58C48.14,74.14,47.83,74.79,47.79,75.64z"/>
						<path class="st800" d="M48.07,75.66c-0.03,0.61,0.12,1.12,0.33,1.14c0.21,0.02,0.4-0.46,0.43-1.07
							c0.03-0.61-0.12-1.12-0.33-1.14C48.29,74.57,48.1,75.05,48.07,75.66z"/>
						<path class="st801" d="M48.66,75.71c0.02-0.53-0.08-0.97-0.25-1.1c0.03-0.02,0.06-0.02,0.09-0.02
							c0.21,0.02,0.36,0.53,0.33,1.14c-0.03,0.61-0.22,1.09-0.43,1.07c-0.03,0-0.06-0.01-0.08-0.04
							C48.49,76.66,48.64,76.24,48.66,75.71z"/>
					</g>
					<path class="st802" d="M50.15,77.33c-0.06,1.91,0.04,3.79,1.04,5c1.15,1.4,3.07,0.99,3.55-1.52c0,0,0.25-1.28,0.29-3.05"/>
					<path class="st250" d="M57.32,86.68c0,0-1.55,5.05-2.34,5.9c-0.53,0.56-2.82,0.94-2.82,0.94S54.62,91.94,57.32,86.68z"/>
					<path class="st250" d="M53.99,79.03c0.05-0.07-0.01,0.2-0.01,0.3c-0.04,0.9-0.16,1.52-0.16,1.52c-0.27,1.5-1.34,1.75-1.98,0.92
						c-0.55-0.72-0.61-1.84-0.57-2.98C51.27,78.79,52.64,80.91,53.99,79.03z"/>
				</g>
			</g>
			<g>
				<path class="st788" d="M55.57,96.83c-0.15,0.3-0.5,0.54-1.07,0.73c-0.55,0.18-1.03,0.22-1.43,0.12c-0.07,0.88-0.22,1.54-0.46,2
					c-0.35,0.65-0.99,1.17-1.92,1.54c-0.68,0.27-1.38,0.22-2.11-0.15c-0.58-0.28-1.03-0.65-1.35-1.1c-0.03-0.05-0.46,0.03-1.29,0.22
					c-0.9,0.2-1.59,0.13-2.07-0.21c-0.83-0.59-1.32-1.3-1.48-2.13c-0.16-0.98,0.17-2.05,1.01-3.21l-0.33-0.95l-1.09-1.39
					c-1.22-1.66-2.27-4.57-3.15-8.73c-0.4-1.88-0.54-4.27-0.42-7.17c0.12-2.76,0.38-4.62,0.78-5.58c0.37-0.86,1.4-0.63,3.07,0.71
					c1.67,1.32,2.53,2.49,2.58,3.53l0.43,3.14c0.31,1.6,0.6,2.79,0.88,3.58l2.41,5.9c1.15,2.17,2.4,3.57,3.77,4.23
					c1.32,0.63,2.29,1.32,2.9,2.07C55.93,94.87,56.05,95.83,55.57,96.83"/>
				<path class="st262" d="M55.15,96.41c0.34-0.84,0.14-1.63-0.6-2.39c-0.51-0.52-1.22-0.97-2.12-1.35
					c-2.4-1.02-4.35-3.47-5.87-7.34c-1.38-3.56-2.05-7.34-2.01-11.33c0.01-0.25,0.11-0.36,0.31-0.33c0.18,0.03,0.27,0.22,0.29,0.57
					c0.11,3.93,1.03,7.72,2.75,11.38c1.65,3.53,3.39,5.61,5.22,6.25c1.34,0.49,2.27,1.25,2.79,2.3c0.51,1.01,0.48,1.96-0.07,2.85
					c-0.29,0.47-0.7,0.81-1.24,1.03c-0.59,0.25-1.1,0.24-1.55-0.02c-0.24-0.12-0.37-0.33-0.39-0.63c-0.02-0.29,0.05-0.4,0.23-0.31
					c0.52,0.26,1.01,0.29,1.48,0.09C54.75,97,55.01,96.74,55.15,96.41"/>
				<path class="st262" d="M38.97,71.08l0.44-0.56c0.18-0.1,0.21,0.08,0.08,0.54c-0.85,3.59-0.77,7.92,0.27,13.01
					c1.02,5.06,2.47,8.42,4.32,10.1c0.12,0.12,0.09,0.28-0.09,0.5c-0.21,0.2-0.41,0.19-0.6-0.04c-2.68-3.02-4.43-7.19-5.26-12.52
					C37.37,77.14,37.65,73.46,38.97,71.08"/>
			</g>
		</g>
		<g>
			<path class="st371" d="M26.67,46.69c0,0,22.8-3.48,34.64-10.19S41.3,38.4,41.3,38.4L26.67,46.69z"/>
			<path class="st804" d="M41.06,39.72c0,0,33.96-6.88,33.01-13.71c-0.5-3.65-12.9-9.69-37.04-2.1C12.9,31.5,7.17,43.25,7.55,46.93
				C8.35,54.77,41.06,39.72,41.06,39.72z"/>
			<path class="st805" d="M21.86,39.43c1.94-5.63,0.49-9.33,0.49-9.33l4.33-2.29c2.76-0.87,17.02-8.25,19.44-8.72
				c1.61,0.22,3.17,0.58,4.6,1.17c1.93,0.79,4.79,9.74,4.79,9.74c-0.09-0.05,1.71-0.27,1.84-0.24c6.63,1.55,14.84-2.3,16.65-3.42
				c0.05-0.03,0.07-0.08,0.07-0.12c0.24,6.77-33.03,13.51-33.03,13.51s-29.56,13.6-33.16,8.2C19.08,45.41,21.5,40.48,21.86,39.43z"
				/>
			<path class="st805" d="M23.86,33.26c0.35-2.4-0.17-3.89-0.17-3.89c0.82-0.37,2.39-1.47,3.15-1.88l1.7,9.13
				c-0.67,0.24-3.25,2.12-3.54,1.83C25,38.44,23.4,36.43,23.86,33.26z"/>
			<g>
				<path class="st806" d="M25.33,34.28c0.03-0.92,0.69-0.92,0.16-2.66c-0.54-1.77-0.03-3.47-0.01-4.79
					c0.02-1.32-1.06-2.05-1.28-2.67c-0.02-0.05,28.74-6.43,28.74-6.39c0.01,0.46,0.12,1.36,0.58,2.26c0.46,0.89,0.68,3.26,0.82,4.55
					c0.14,1.28,1.04,1.64,1.04,1.64c0.47-0.12,0.57,2.51,0.57,2.51c-7.12,5.77-22.27,9.72-30.68,7.88
					C25.27,36.62,25.3,35.21,25.33,34.28z"/>
				<g>
					<path class="st807" d="M24.2,24.16c-0.41-1.45,5.67-4.52,13.6-6.35c7.96-1.28,14.75-1.07,15.14-0.04
						c0.39,1.02-4.55,3.62-12.49,5.32C32.53,25.34,24.61,25.6,24.2,24.16z"/>
					<g class="st15">
						<g>
							<path class="st808" d="M55.06,25.13c-3.05-0.22-5.02-1.87-7.17-3.06c-0.02-0.01,0.01-0.03,0.04-0.02
								c2.22,1.14,4.14,2.8,7.16,3.05C55.13,25.09,55.11,25.13,55.06,25.13L55.06,25.13z"/>
						</g>
						<g>
							<path class="st808" d="M54.19,25.58c-3.35,0.06-7.28-1.56-8.25-3.59c-0.02-0.04,0.07-0.05,0.09-0.02
								c1.09,1.98,4.87,3.53,8.17,3.57C54.24,25.54,54.22,25.58,54.19,25.58L54.19,25.58z"/>
						</g>
						<g>
							<path class="st808" d="M52.43,26.39c-2.03,0.42-4.62-0.05-6.02-0.81c-0.8-0.45-1.49-0.99-2.12-1.57
								c-0.43-0.39-1.03-0.91-1.04-1.45c0-0.06,0.13-0.06,0.13,0c0.07,1.1,1.92,2.19,2.96,2.84c1.37,0.82,4.02,1.35,6.09,0.98
								C52.44,26.37,52.45,26.39,52.43,26.39L52.43,26.39z"/>
						</g>
						<g>
							<path class="st808" d="M50.07,27.3c-2.44,0.32-4.62-0.42-6.06-1.45c-0.68-0.51-1.31-1.06-1.88-1.65
								c-0.19-0.19-0.73-0.66-0.53-0.94c0.04-0.05,0.16-0.02,0.13,0.03c-0.18,0.35,0.52,0.89,0.76,1.13
								c0.54,0.53,1.17,1.01,1.81,1.46c1.4,0.98,3.5,1.55,5.78,1.36C50.14,27.24,50.14,27.3,50.07,27.3L50.07,27.3z"/>
						</g>
						<g>
							<path class="st808" d="M48.76,28.12c-4.32,1.04-8.26-1.36-9.54-3.85c-0.03-0.06,0.11-0.09,0.15-0.03
								c1.35,2.45,5.09,4.75,9.38,3.85C48.78,28.08,48.8,28.11,48.76,28.12L48.76,28.12z"/>
						</g>
						<g>
							<path class="st808" d="M45.41,29.44c-2.43,0.13-4.8-0.44-6.22-1.66c-0.68-0.61-1.32-1.26-1.93-1.94
								c-0.22-0.25-0.88-0.78-0.74-1.14c0.02-0.05,0.13-0.05,0.13,0.01c-0.02,0.39,0.64,0.93,0.9,1.22
								c0.48,0.53,0.99,1.04,1.52,1.53c1.45,1.31,3.79,2.03,6.36,1.94C45.46,29.4,45.45,29.44,45.41,29.44L45.41,29.44z"/>
						</g>
						<g>
							<path class="st808" d="M42.54,30.71c-2.16-0.06-4.27-0.77-5.52-1.92c-0.72-0.68-1.31-1.45-1.99-2.19
								c-0.55-0.6-1.6-0.99-1.9-1.72c-0.01-0.03,0.05-0.04,0.06-0.01c0.25,0.64,1.22,1.03,1.74,1.53c0.59,0.57,1.11,1.18,1.65,1.75
								c1.41,1.46,3.42,2.32,5.99,2.51C42.6,30.67,42.58,30.71,42.54,30.71L42.54,30.71z"/>
						</g>
						<g>
							<path class="st808" d="M39.92,31.49c-3.83-0.25-5.24-3.75-7.47-5.73c-0.05-0.05,0.05-0.11,0.1-0.06
								c2.1,2.17,3.83,5.12,7.4,5.75C39.98,31.45,39.95,31.49,39.92,31.49L39.92,31.49z"/>
						</g>
						<g>
							<path class="st808" d="M37.17,32.42c-1.88-0.25-3.57-1.25-4.4-2.54c-0.21-0.33-2.01-3.86-1.86-3.93
								c-0.07,0.03-0.13-0.02-0.09-0.07c0.01-0.01,0.02-0.03,0.03-0.05c0.04-0.05,0.13-0.05,0.16-0.01c0.73,0.9,1,2.15,1.47,3.13
								c0.86,1.73,2.49,2.86,4.72,3.43C37.23,32.38,37.2,32.43,37.17,32.42L37.17,32.42z"/>
						</g>
						<g>
							<path class="st808" d="M34.12,32.8c-3.71,0-2.81-4.25-4.72-5.86c-0.03-0.03,0.02-0.09,0.07-0.07
								c0.78,0.37,1.05,1.93,1.33,2.56c0.63,1.43,1.23,3.08,3.34,3.33C34.16,32.77,34.15,32.8,34.12,32.8L34.12,32.8z"/>
						</g>
						<g>
							<path class="st808" d="M32.16,33.42c-1.28-0.43-2.1-1.46-2.81-2.4c-0.9-1.21-1.61-2.55-2.3-3.92
								c-0.03-0.05,0.07-0.1,0.1-0.05c0.57,1.1,1.17,2.17,1.84,3.18c0.79,1.18,1.72,2.55,3.25,3.08
								C32.31,33.34,32.24,33.45,32.16,33.42L32.16,33.42z"/>
						</g>
						<g>
							<path class="st808" d="M30.15,34.04c-2.3-1.23-3.45-3.98-4.28-6.29c-0.03-0.07,0.11-0.11,0.14-0.04
								c0.85,2.34,2.08,4.86,4.18,6.3C30.21,34.02,30.17,34.05,30.15,34.04L30.15,34.04z"/>
						</g>
						<g>
							<path class="st808" d="M53.24,24.3c-0.64-0.24-1.11-0.71-1.61-1.06c-0.66-0.47-1.35-1.06-2.24-1.41
								c-0.03-0.01,0-0.04,0.03-0.03c0.86,0.23,1.49,0.8,2.06,1.2c0.6,0.41,1.33,0.83,1.77,1.29C53.26,24.3,53.25,24.3,53.24,24.3
								L53.24,24.3z"/>
						</g>
						<g>
							<path class="st808" d="M52.3,21.87c-0.82-0.37-1.92-0.49-2.74-0.87c-0.03-0.01-0.01-0.05,0.03-0.04
								c0.51,0.13,1,0.29,1.5,0.43c0.43,0.12,0.94,0.24,1.25,0.45C52.36,21.86,52.33,21.89,52.3,21.87L52.3,21.87z"/>
						</g>
						<g>
							<path class="st808" d="M51.56,20.58c0.21,0.98,0.29,1.96,0.29,2.95c-0.01,0.92,0.05,2.1-0.69,3.03
								c-0.03,0.04-0.11,0.02-0.1-0.02c0.68-2.01,0.78-3.98,0.46-5.96C51.51,20.57,51.56,20.56,51.56,20.58L51.56,20.58z"/>
						</g>
						<g>
							<path class="st808" d="M50.62,20.62c-0.46,1.24-0.48,2.54-0.7,3.81c-0.19,1.1-0.38,2.38-1.36,3.46
								c-0.04,0.04-0.13,0.02-0.11-0.02c1.52-2.45,1.14-4.89,2.13-7.26C50.59,20.59,50.62,20.6,50.62,20.62L50.62,20.62z"/>
						</g>
						<g>
							<path class="st808" d="M49.21,21.32c-0.39,1.19-0.2,2.42-0.51,3.63c-0.15,0.57-0.54,1.16-0.82,1.73
								c-0.43,0.9-0.88,1.8-1.66,2.68c-0.03,0.03-0.09,0.02-0.07-0.02c1.08-1.51,2.11-3.25,2.45-4.76c0.25-1.09,0.15-2.2,0.54-3.28
								C49.16,21.28,49.22,21.29,49.21,21.32L49.21,21.32z"/>
						</g>
						<g>
							<path class="st808" d="M47.12,21.93c-0.15,1.11,0.02,2.21-0.21,3.33c-0.12,0.6-0.57,1.22-0.89,1.81
								c-0.48,0.91-1.06,1.85-1.94,2.72c-0.05,0.05-0.16,0.03-0.12-0.03c1.18-1.51,2.51-3.26,2.79-4.8
								c0.18-1.01,0.09-2.02,0.26-3.02C47.03,21.89,47.13,21.89,47.12,21.93L47.12,21.93z"/>
						</g>
						<g>
							<path class="st808" d="M44.55,22.83c-0.85,1.45-1.23,3-1.83,4.52c-0.56,1.44-1.28,3.18-3.02,4.42
								c-0.06,0.04-0.12,0-0.08-0.04c3.13-2.84,2.9-6.12,4.83-8.92C44.48,22.77,44.57,22.79,44.55,22.83L44.55,22.83z"/>
						</g>
						<g>
							<path class="st808" d="M42.03,23.56c-1.48,2.67-2.08,5.6-3.92,8.4c-0.04,0.05-0.15,0.04-0.12-0.02
								c1.42-2.87,2.31-5.74,3.97-8.39C41.97,23.51,42.05,23.52,42.03,23.56L42.03,23.56z"/>
						</g>
						<g>
							<path class="st808" d="M40.06,24.27c-2.76,2.37-2.07,5.65-4.29,8.38c-0.04,0.06-0.16,0.04-0.13-0.02
								c1.64-2.79,1.57-6.14,4.32-8.42C40.03,24.15,40.12,24.22,40.06,24.27L40.06,24.27z"/>
						</g>
						<g>
							<path class="st808" d="M38.29,24.58c-1.95,0.59-2.67,2.93-3.11,4.23c-0.44,1.32-0.67,2.82-1.66,4.11
								c-0.04,0.05-0.16,0.04-0.12-0.02c0.97-1.73,1.29-3.51,1.95-5.22c0.44-1.11,1.32-2.76,2.92-3.18
								C38.33,24.48,38.36,24.56,38.29,24.58L38.29,24.58z"/>
						</g>
						<g>
							<path class="st808" d="M36.04,24.97c-0.61,0.41-0.6,1.58-0.71,2.1c-0.12,0.58-0.21,1.17-0.43,1.76
								c-0.29,0.79-1.17,1.7-1.71,2.46c-0.72,1.03-1.52,2.06-2.55,2.99c-0.04,0.04-0.11,0.01-0.08-0.03
								c0.98-1.11,1.83-2.23,2.63-3.37c0.59-0.83,1.36-1.67,1.61-2.54c0.21-0.72,0.33-1.45,0.52-2.17c0.1-0.38,0.18-0.99,0.63-1.27
								C36.02,24.86,36.11,24.92,36.04,24.97L36.04,24.97z"/>
						</g>
						<g>
							<path class="st808" d="M33.6,25.38c-1.61,1.2-2.36,2.71-2.97,4.32c-0.47,1.26-0.81,2.72-1.84,3.9
								c-0.05,0.05-0.14,0.03-0.1-0.03c1.83-2.81,1.65-6.13,4.82-8.25C33.57,25.26,33.67,25.32,33.6,25.38L33.6,25.38z"/>
						</g>
						<g>
							<path class="st808" d="M31.41,25.8c-1.91,2.02-1.99,4.73-3.88,6.87c-0.06,0.07-0.16,0.03-0.12-0.04
								c1.29-2.29,2.04-4.91,3.9-6.87C31.36,25.71,31.46,25.75,31.41,25.8L31.41,25.8z"/>
						</g>
						<g>
							<path class="st808" d="M29.39,25.85c-0.58,0.53-1.16,1.06-1.73,1.61c-0.63,0.6-1.15,1.27-1.77,1.89
								c-0.07,0.07-0.16,0-0.12-0.07c0.75-1.34,2.33-2.47,3.52-3.51C29.36,25.71,29.45,25.79,29.39,25.85L29.39,25.85z"/>
						</g>
						<g>
							<path class="st808" d="M32.55,25.44c-2.57,1.76-2.21,4.84-4.18,7.03c-0.05,0.06-0.15,0.03-0.11-0.04
								c0.95-1.35,1.4-2.85,2.06-4.23c0.47-0.98,1.05-2.18,2.19-2.81C32.54,25.38,32.59,25.42,32.55,25.44L32.55,25.44z"/>
						</g>
						<g>
							<path class="st808" d="M30.2,25.85c-1.47,1.72-1.22,4.08-2.89,5.8c-0.06,0.06-0.16,0-0.12-0.06c1.3-1.87,1.41-4.07,2.92-5.77
								C30.16,25.77,30.24,25.81,30.2,25.85L30.2,25.85z"/>
						</g>
						<g>
							<path class="st808" d="M34.44,25.24c-1.68,2.16-1.68,4.81-3.54,7.03c-0.05,0.06-0.16,0.03-0.12-0.04
								c1.51-2.31,1.68-4.98,3.58-7.03C34.39,25.17,34.47,25.2,34.44,25.24L34.44,25.24z"/>
						</g>
						<g>
							<path class="st808" d="M36.96,24.73c-1.37,0.39-1.92,2.92-2.24,3.8c-0.38,1.03-0.57,2.22-1.25,3.23
								c-0.04,0.05-0.14,0.03-0.11-0.02c0.69-1.36,0.97-2.8,1.51-4.14c0.29-0.74,0.85-2.66,2.08-2.94
								C37,24.65,37.02,24.72,36.96,24.73L36.96,24.73z"/>
						</g>
						<g>
							<path class="st808" d="M38.75,24.4c-1.63,2.45-1.8,5.35-3.81,7.87c-0.04,0.05-0.14,0.03-0.11-0.02
								c1.51-2.64,1.91-5.51,3.82-7.89C38.68,24.32,38.78,24.35,38.75,24.4L38.75,24.4z"/>
						</g>
						<g>
							<path class="st808" d="M41.2,23.9c-2.36,2.26-2.02,5.29-3.41,7.9c-0.03,0.06-0.14,0.06-0.12,0c0.58-1.5,0.95-3,1.43-4.47
								c0.38-1.14,0.82-2.55,2.02-3.47C41.17,23.84,41.24,23.87,41.2,23.9L41.2,23.9z"/>
						</g>
						<g>
							<path class="st808" d="M43.52,23.08c-1.8,2.38-1.64,5.25-3.8,7.73c-0.04,0.05-0.14,0.03-0.11-0.02
								c1.61-2.6,1.84-5.4,3.82-7.74C43.47,23.01,43.55,23.04,43.52,23.08L43.52,23.08z"/>
						</g>
						<g>
							<path class="st808" d="M46.31,21.93c-1.52,2.55-1.56,5.46-3.55,8.12c-0.03,0.04-0.12,0.03-0.1-0.01
								c1.53-2.76,1.98-5.55,3.56-8.12C46.24,21.88,46.33,21.89,46.31,21.93L46.31,21.93z"/>
						</g>
						<g>
							<path class="st808" d="M48.59,21.36c-0.13,1.25-0.8,2.62-1.22,3.89c-0.46,1.4-0.81,2.98-1.85,4.39
								c-0.03,0.04-0.11,0.02-0.1-0.01c0.53-1.41,1.16-2.78,1.63-4.15c0.46-1.34,0.64-2.87,1.49-4.12
								C48.55,21.34,48.59,21.34,48.59,21.36L48.59,21.36z"/>
						</g>
						<g>
							<path class="st808" d="M51.22,20.68c-0.03,1.2-0.42,2.41-0.77,3.61c-0.38,1.31-0.68,2.62-0.99,3.95
								c-0.02,0.07-0.17,0.09-0.17,0.02c-0.08-1.11,0.46-2.36,0.81-3.49c0.43-1.37,0.96-2.74,1.07-4.09
								C51.16,20.66,51.22,20.66,51.22,20.68L51.22,20.68z"/>
						</g>
						<g>
							<path class="st808" d="M50.2,20.88c-1.25,1.18-1.64,2.88-1.93,4.25c-0.28,1.3-0.27,2.68-0.94,4.01
								c-0.02,0.04-0.13,0.05-0.12,0.01c0.33-1.5,0.58-2.99,0.93-4.47c0.29-1.21,0.73-2.84,1.99-3.82
								C50.16,20.83,50.23,20.86,50.2,20.88L50.2,20.88z"/>
						</g>
					</g>
				</g>
				<path class="st809" d="M25.36,38.34c0,0-0.28-3.45-0.03-4.07c0.86,0.24,5.97,1.24,16.04-2.18c9.44-2.43,13.05-5.21,13.9-5.93
					c0.07,0.04,0.12,0.06,0.12,0.06c0.47-0.12,1.58,3.64,1.58,3.64C49.84,35.64,33.77,40.18,25.36,38.34z"/>
			</g>
			<g>
				<g>
					<g>
						<path class="st810" d="M67.44,29.89c-1.94-0.78-3.96-1.17-6.05-0.88c-0.03,0-0.03,0.06,0.01,0.06
							c2.08-0.16,4.08,0.18,6.02,0.91C67.47,30,67.49,29.91,67.44,29.89L67.44,29.89z"/>
					</g>
				</g>
				<g>
					<g>
						<path class="st810" d="M67.57,29.08c-2.18-1.37-4.97-2.11-7.36-0.8c-0.07,0.04-0.01,0.13,0.06,0.1
							c1.28-0.59,2.64-0.75,4.02-0.47c1.14,0.24,2.21,0.71,3.25,1.24C67.58,29.17,67.62,29.1,67.57,29.08L67.57,29.08z"/>
					</g>
				</g>
				<g>
					<g>
						<path class="st810" d="M67.64,27.59c-0.34-0.59-1.09-0.81-1.72-0.96c-0.74-0.18-1.5-0.25-2.25-0.37
							c-0.75-0.12-1.51-0.19-2.27-0.16c-0.66,0.02-1.44,0.09-1.97,0.52c-0.07,0.06,0.02,0.18,0.1,0.13
							c0.58-0.42,1.34-0.46,2.03-0.46c0.7,0,1.41,0.06,2.1,0.17c0.63,0.1,1.28,0.16,1.91,0.27c0.69,0.12,1.61,0.27,2.04,0.89
							C67.62,27.63,67.66,27.62,67.64,27.59L67.64,27.59z"/>
					</g>
				</g>
				<g>
					<g>
						<path class="st810" d="M65.04,30.22c-0.05-0.09-0.15-0.05-0.24-0.04c-0.12,0.01-0.24,0-0.36,0c-0.29-0.02-0.58-0.05-0.87-0.1
							c-0.29-0.05-0.58-0.1-0.87-0.15c-0.26-0.04-0.54-0.09-0.8-0.06c-0.04,0-0.05,0.06-0.01,0.07c0.27,0.09,0.57,0.13,0.85,0.18
							c0.31,0.05,0.63,0.11,0.95,0.15c0.28,0.04,0.57,0.08,0.86,0.08C64.59,30.35,65.11,30.36,65.04,30.22L65.04,30.22z"/>
					</g>
				</g>
				<g>
					<g>
						<path class="st810" d="M63.57,31c-0.2,0-0.41,0.01-0.61,0c-0.25-0.01-0.49-0.04-0.73-0.07c-0.25-0.03-0.49-0.07-0.73-0.1
							c-0.21-0.03-0.47-0.09-0.68-0.03c-0.04,0.01-0.04,0.07,0,0.09c0.09,0.04,0.2,0.04,0.3,0.05c0.12,0.01,0.24,0.02,0.35,0.04
							c0.26,0.03,0.52,0.07,0.78,0.1c0.24,0.03,0.49,0.05,0.73,0.06c0.2,0.01,0.41,0.02,0.6-0.05C63.62,31.06,63.62,31,63.57,31
							L63.57,31z"/>
					</g>
				</g>
				<g>
					<g>
						<path class="st810" d="M61.31,32.12c1.12-0.69,2.17-1.46,3.15-2.33c0.49-0.44,0.96-0.89,1.42-1.37
							c0.23-0.24,0.45-0.49,0.67-0.74c0.18-0.2,0.4-0.41,0.49-0.67c0.02-0.06-0.05-0.11-0.1-0.08c-0.24,0.14-0.41,0.41-0.59,0.62
							c-0.21,0.24-0.42,0.47-0.64,0.7c-0.44,0.47-0.89,0.92-1.36,1.35c-0.96,0.89-1.99,1.73-3.07,2.46
							C61.25,32.1,61.28,32.14,61.31,32.12L61.31,32.12z"/>
					</g>
				</g>
				<g>
					<g>
						<path class="st810" d="M60.87,31.68c1.12-1.12,2.31-2.16,3.42-3.3c0.54-0.55,1.06-1.12,1.56-1.71
							c0.48-0.57,1.01-1.18,1.32-1.87c0.03-0.07-0.05-0.15-0.11-0.09c-0.51,0.55-0.92,1.19-1.41,1.76
							c-0.51,0.61-1.04,1.19-1.59,1.76c-1.08,1.13-2.16,2.26-3.22,3.4C60.81,31.67,60.84,31.71,60.87,31.68L60.87,31.68z"/>
					</g>
				</g>
				<g>
					<g>
						<path class="st810" d="M60.71,30.12c0.62-0.62,1.23-1.26,1.79-1.94c0.54-0.65,1.05-1.33,1.62-1.96
							c1.07-1.2,2.32-2.4,3.02-3.86c0.03-0.06-0.05-0.1-0.09-0.05c-1.01,1.33-2.09,2.58-3.19,3.84c-1.11,1.27-2.06,2.67-3.21,3.91
							C60.61,30.1,60.67,30.15,60.71,30.12L60.71,30.12z"/>
					</g>
				</g>
				<g>
					<g>
						<path class="st810" d="M59.98,29.61c0.32-0.14,0.58-0.5,0.82-0.75c0.29-0.31,0.58-0.63,0.87-0.95
							c0.59-0.67,1.16-1.36,1.73-2.06c0.56-0.69,1.1-1.38,1.65-2.08c0.51-0.66,1.16-1.32,1.52-2.08c0.03-0.07-0.04-0.12-0.1-0.08
							c-0.67,0.53-1.16,1.33-1.68,2c-0.56,0.72-1.12,1.43-1.68,2.14c-0.54,0.68-1.09,1.36-1.65,2.03c-0.28,0.33-0.55,0.65-0.84,0.98
							c-0.22,0.25-0.54,0.51-0.66,0.82C59.93,29.6,59.96,29.62,59.98,29.61L59.98,29.61z"/>
					</g>
				</g>
				<g>
					<g>
						<path class="st810" d="M61.27,31.88c1.36-1,2.48-2.25,3.57-3.53c0.55-0.65,1.1-1.29,1.68-1.91c0.3-0.32,0.6-0.62,0.92-0.92
							c0.29-0.27,0.64-0.51,0.88-0.82c0.07-0.1-0.06-0.18-0.15-0.15c-0.35,0.16-0.66,0.5-0.94,0.76c-0.3,0.28-0.59,0.58-0.87,0.88
							c-0.58,0.62-1.12,1.28-1.66,1.93c-1.08,1.3-2.16,2.62-3.47,3.7C61.2,31.84,61.24,31.9,61.27,31.88L61.27,31.88z"/>
					</g>
				</g>
				<g>
					<g>
						<path class="st810" d="M60.76,31.06c0.38-0.63,0.85-1.19,1.36-1.73c0.59-0.63,1.16-1.26,1.72-1.92
							c0.64-0.75,1.29-1.48,1.95-2.21c0.67-0.74,1.4-1.44,1.98-2.25c0.05-0.08-0.06-0.14-0.12-0.09c-0.81,0.64-1.5,1.47-2.19,2.24
							c-0.69,0.77-1.37,1.55-2.03,2.35c-0.54,0.64-1.09,1.27-1.64,1.91c-0.41,0.48-0.95,1.04-1.14,1.66
							C60.64,31.08,60.73,31.11,60.76,31.06L60.76,31.06z"/>
					</g>
				</g>
				<g>
					<g>
						<path class="st810" d="M63.51,22.41c-0.24,0.58-0.58,1.11-0.88,1.67c-0.29,0.56-0.57,1.12-0.88,1.67
							c-0.31,0.54-0.65,1.07-1.01,1.59c-0.36,0.53-0.78,1.02-1.11,1.57c-0.03,0.06,0.04,0.11,0.09,0.07
							c0.48-0.41,0.85-0.95,1.21-1.46c0.38-0.55,0.74-1.11,1.07-1.69c0.31-0.55,0.58-1.11,0.87-1.67c0.29-0.56,0.6-1.1,0.8-1.69
							C63.71,22.35,63.55,22.31,63.51,22.41L63.51,22.41z"/>
					</g>
				</g>
				<g>
					<g>
						<path class="st810" d="M62.11,23.36c-0.59,0.83-1.03,1.73-1.46,2.65c-0.21,0.45-0.43,0.89-0.66,1.32
							c-0.25,0.45-0.55,0.87-0.78,1.32c-0.03,0.06,0.04,0.11,0.09,0.07c0.37-0.32,0.64-0.76,0.87-1.18c0.25-0.44,0.47-0.9,0.69-1.36
							c0.43-0.92,0.83-1.88,1.37-2.75C62.27,23.36,62.16,23.3,62.11,23.36L62.11,23.36z"/>
					</g>
				</g>
				<g>
					<g>
						<g>
							<path class="st810" d="M18.61,39.73c-1.13,0.48-2.11,1.2-3.04,2c-0.51,0.44-1.02,0.87-1.53,1.3
								c-0.51,0.44-1.09,0.86-1.52,1.38c-0.04,0.05,0.01,0.13,0.07,0.09c0.51-0.36,0.97-0.83,1.44-1.24
								c0.51-0.44,1.02-0.87,1.52-1.31c0.95-0.82,1.94-1.65,3.08-2.18C18.66,39.76,18.64,39.72,18.61,39.73L18.61,39.73z"/>
						</g>
					</g>
					<g>
						<g>
							<path class="st810" d="M18.09,39.22c-1.1,0.61-2.14,1.28-3.12,2.07c-0.5,0.4-0.99,0.81-1.46,1.24
								c-0.46,0.41-0.96,0.82-1.34,1.32c-0.03,0.04,0.03,0.11,0.08,0.08c0.48-0.34,0.89-0.79,1.32-1.19
								c0.47-0.43,0.94-0.86,1.43-1.27c0.97-0.81,2-1.61,3.1-2.24C18.11,39.22,18.1,39.21,18.09,39.22L18.09,39.22z"/>
						</g>
					</g>
					<g>
						<g>
							<path class="st810" d="M19.74,37.65c-0.77,0.3-1.46,0.7-2.14,1.17c-0.75,0.51-1.5,1.01-2.22,1.56
								c-0.69,0.52-1.35,1.08-1.99,1.65c-0.6,0.53-1.34,1.07-1.71,1.8c-0.02,0.05,0.03,0.09,0.07,0.05
								c0.58-0.56,1.12-1.13,1.72-1.67c0.69-0.61,1.39-1.21,2.12-1.77c0.66-0.5,1.35-0.96,2.03-1.44c0.68-0.47,1.37-1,2.12-1.35
								C19.75,37.66,19.75,37.65,19.74,37.65L19.74,37.65z"/>
						</g>
					</g>
					<g>
						<g>
							<path class="st810" d="M19.69,36.82c-1.67,0.84-3.31,1.69-4.8,2.82c-0.65,0.5-1.27,1.03-1.9,1.54
								c-0.56,0.45-1.24,0.92-1.56,1.58c-0.03,0.06,0.05,0.13,0.1,0.07c0.46-0.59,1.02-1.06,1.6-1.52c0.69-0.55,1.35-1.12,2.05-1.64
								c1.44-1.07,3.04-1.85,4.57-2.78C19.79,36.86,19.75,36.79,19.69,36.82L19.69,36.82z"/>
						</g>
					</g>
					<g>
						<g>
							<path class="st810" d="M19.87,36.07c-1.44,0.77-2.92,1.46-4.34,2.27c-1.35,0.78-2.86,1.65-3.9,2.84
								c-0.04,0.05,0.02,0.14,0.07,0.09c0.65-0.5,1.25-1.04,1.92-1.51c0.67-0.47,1.36-0.89,2.06-1.3c1.39-0.8,2.81-1.55,4.2-2.36
								C19.92,36.1,19.89,36.06,19.87,36.07L19.87,36.07z"/>
						</g>
					</g>
					<g>
						<g>
							<path class="st810" d="M19.57,40.03c-0.9-0.34-1.59-0.98-2.25-1.65c-0.27-0.27-0.55-0.55-0.77-0.87
								c-0.11-0.16-0.21-0.33-0.27-0.51c-0.06-0.19-0.04-0.36-0.06-0.55c0-0.04-0.06-0.06-0.08-0.02c-0.2,0.29,0.05,0.78,0.21,1.03
								c0.23,0.36,0.52,0.66,0.82,0.96c0.71,0.7,1.43,1.35,2.38,1.7C19.6,40.13,19.62,40.05,19.57,40.03L19.57,40.03z"/>
						</g>
					</g>
					<g>
						<g>
							<path class="st810" d="M19.13,40.62c-0.89,0.1-1.61-0.77-2.18-1.33c-0.33-0.33-0.68-0.63-0.99-0.98
								c-0.18-0.2-0.34-0.41-0.49-0.63c-0.15-0.23-0.25-0.49-0.4-0.71c-0.04-0.06-0.12-0.02-0.11,0.05
								c0.05,0.27,0.22,0.52,0.36,0.75c0.14,0.22,0.3,0.42,0.46,0.61c0.34,0.39,0.73,0.72,1.09,1.08c0.58,0.58,1.33,1.37,2.24,1.25
								C19.18,40.7,19.18,40.61,19.13,40.62L19.13,40.62z"/>
						</g>
					</g>
					<g>
						<g>
							<path class="st810" d="M18.05,41.38c-0.8-0.55-1.46-1.31-2.16-1.97c-0.33-0.31-0.65-0.62-0.95-0.97
								c-0.16-0.18-0.31-0.37-0.44-0.57c-0.12-0.18-0.22-0.39-0.37-0.54c-0.03-0.03-0.09-0.01-0.09,0.04
								c0.03,0.21,0.16,0.4,0.27,0.58c0.12,0.19,0.26,0.37,0.4,0.54c0.31,0.37,0.66,0.71,1.02,1.04c0.73,0.68,1.42,1.4,2.27,1.94
								C18.06,41.5,18.11,41.41,18.05,41.38L18.05,41.38z"/>
						</g>
					</g>
					<g>
						<g>
							<path class="st810" d="M17.28,41.98c-0.89-0.32-1.57-1.04-2.2-1.72c-0.31-0.33-0.61-0.67-0.87-1.05
								c-0.13-0.19-0.25-0.39-0.35-0.59c-0.11-0.21-0.17-0.44-0.27-0.65c-0.02-0.03-0.06-0.01-0.06,0.02
								c-0.01,0.45,0.27,0.93,0.52,1.29c0.27,0.4,0.59,0.76,0.92,1.11c0.66,0.7,1.36,1.41,2.28,1.73
								C17.33,42.15,17.37,42.01,17.28,41.98L17.28,41.98z"/>
						</g>
					</g>
					<g>
						<g>
							<path class="st810" d="M16.27,42.46c-0.89-0.24-1.64-0.81-2.25-1.5c-0.3-0.34-0.57-0.72-0.81-1.11
								c-0.11-0.19-0.22-0.38-0.32-0.57c-0.09-0.17-0.16-0.38-0.29-0.53c-0.02-0.03-0.07-0.01-0.07,0.03
								c0.01,0.19,0.11,0.39,0.19,0.57c0.1,0.21,0.21,0.42,0.33,0.63c0.24,0.41,0.52,0.8,0.84,1.15c0.63,0.7,1.41,1.26,2.33,1.5
								C16.33,42.65,16.37,42.49,16.27,42.46L16.27,42.46z"/>
						</g>
					</g>
					<g>
						<g>
							<path class="st810" d="M14.93,43.27c-0.75-0.34-1.18-1.14-1.65-1.77c-0.26-0.35-0.53-0.69-0.75-1.07
								c-0.25-0.44-0.44-0.91-0.55-1.4C11.97,39,11.92,39,11.92,39.04c0.01,1.01,0.62,1.81,1.2,2.58c0.5,0.65,0.97,1.41,1.75,1.76
								C14.94,43.41,15,43.3,14.93,43.27L14.93,43.27z"/>
						</g>
					</g>
					<g>
						<g>
							<path class="st810" d="M14.03,43.81c-0.61-0.31-1.15-0.77-1.57-1.31c-0.21-0.27-0.4-0.56-0.57-0.86
								c-0.17-0.3-0.28-0.63-0.46-0.92c-0.03-0.04-0.08-0.01-0.07,0.03c0.05,0.34,0.21,0.68,0.37,0.99
								c0.16,0.32,0.35,0.62,0.57,0.89c0.45,0.56,1.01,1,1.65,1.32C14.04,43.99,14.11,43.86,14.03,43.81L14.03,43.81z"/>
						</g>
					</g>
					<g>
						<g>
							<path class="st810" d="M13.51,44.27c-0.45-0.08-0.85-0.32-1.19-0.62c-0.16-0.14-0.31-0.31-0.44-0.47
								c-0.13-0.17-0.24-0.36-0.38-0.51c-0.05-0.05-0.13,0-0.11,0.07c0.06,0.22,0.2,0.41,0.34,0.58c0.14,0.18,0.31,0.35,0.49,0.49
								c0.37,0.3,0.81,0.49,1.27,0.57C13.55,44.39,13.58,44.29,13.51,44.27L13.51,44.27z"/>
						</g>
					</g>
					<g>
						<g>
							<path class="st810" d="M19.72,39.29c-0.5-0.42-1.02-0.83-1.49-1.28c-0.24-0.23-0.47-0.47-0.66-0.74
								c-0.2-0.27-0.36-0.56-0.55-0.85c-0.03-0.04-0.1-0.02-0.09,0.04c0.17,0.64,0.66,1.18,1.13,1.63c0.49,0.47,1.05,0.87,1.57,1.3
								C19.69,39.43,19.78,39.35,19.72,39.29L19.72,39.29z"/>
						</g>
					</g>
					<g>
						<g>
							<path class="st810" d="M19.63,37.91c-0.42-0.21-0.73-0.56-1-0.93c-0.27-0.36-0.46-0.78-0.75-1.12
								c-0.03-0.04-0.11,0-0.09,0.05c0.16,0.44,0.44,0.84,0.72,1.21c0.29,0.37,0.64,0.7,1.07,0.89
								C19.64,38.04,19.7,37.95,19.63,37.91L19.63,37.91z"/>
						</g>
					</g>
				</g>
			</g>
			<path class="st805" d="M12.07,47.74c2.58-0.72,5.16-1.5,7.68-2.52c1.45-0.58,2.9-1.19,4.29-1.94c1.34-0.73,2.64-1.54,3.93-2.37
				c2.66-1.71,5.3-3.39,8.18-4.66c3.59-1.59,7.33-2.67,11.06-3.23c3.97-0.6,5.29-0.59,9.23-0.88c3.09-0.23,9.68-0.8,12.71-2.06
				c1.88-0.78,4.69-3.61,4.87-3.72c0.05-0.03,0.07-0.08,0.07-0.12c0.24,6.77-33.03,13.51-33.03,13.51s-27.24,12.53-32.6,8.76
				C9.66,48.41,10.96,48.05,12.07,47.74z"/>
			<g>
				<path class="st811" d="M74.06,26.72c0.68,1.51-2.31,4.94-3.7,6.09c-2.52,2.27-6,3.19-9.05,3.68
					c-7.04,1.23-14.94,2.03-21.83,4.83c-6.08,2.46-10.58,4.84-16.59,6.98c-10.53,3.76-14.96-0.33-14.96-0.33s10.73,1.86,30.74-10.69
					c7.1-4.45,21.72-3.55,27.44-5.5C71.84,29.83,74.06,26.72,74.06,26.72z"/>
				<g>
					<path class="st316" d="M73.9,26.76c0.61,1.77-1.88,4.19-3,5.29c-1.91,1.86-4.27,2.95-6.83,3.61
						c-5.44,1.41-11.15,1.74-16.64,2.96c-5.62,1.25-10.78,3.54-16.03,5.86c-5.14,2.27-10.68,4.97-16.41,5.05
						c-2.17,0.03-5.1-0.27-6.8-1.82c-0.12,0.2-0.23,0.4-0.35,0.6c1.49,0.26,3.1,0.11,4.59-0.06c4.58-0.53,9.03-1.95,13.26-3.73
						c3.26-1.36,6.41-2.96,9.48-4.72c2.92-1.68,5.54-3.43,8.82-4.33c5.84-1.6,11.95-1.67,17.92-2.47c4.45-0.6,9.7-2.3,12.47-6.11
						c0.28-0.38-0.36-0.75-0.63-0.37c-0.87,1.2-2.3,2.2-3.57,2.98c-2.4,1.45-4.97,2.29-7.72,2.7C56.77,33.05,51,33.14,45.38,34.4
						c-2.59,0.58-5.05,1.44-7.31,2.84c-3.28,2.03-6.65,3.91-10.15,5.53c-4.53,2.1-9.31,3.83-14.26,4.61
						c-1.75,0.27-4.04,0.53-5.63,0.26c-0.32-0.05-0.64,0.34-0.35,0.6c1.38,1.26,3.54,1.74,5.32,1.93
						c5.56,0.59,10.96-1.75,15.94-3.91c5.99-2.59,11.8-5.5,18.2-6.98c3.09-0.72,6.23-1.23,9.36-1.73c2.88-0.46,5.85-0.79,8.65-1.67
						c2.55-0.8,4.8-2.17,6.6-4.15c1.04-1.15,3.08-3.32,2.46-5.05C74.15,26.48,73.83,26.56,73.9,26.76z"/>
				</g>
			</g>
		</g>
	</g>
</g>
</svg>
